<svg version="1.1" xmlns="http://www.w3.org/2000/svg" xmlns:xlink="http://www.w3.org/1999/xlink" x="0px" y="0px"
	 viewBox="0 0 1380.925 669.439" style="enable-background:new 0 0 1380.925 669.439;" xml:space="preserve">
<g id="background02">
	<g id="football_1_">
		<path style="fill:#1D1E1D;" d="M945.099,114.881v109.288h-27.271v-58.593c0-8.46-0.202-13.545-0.607-15.255
			c-0.405-1.71-1.519-3.004-3.342-3.882c-1.822-0.877-5.884-1.316-12.185-1.316h-2.699v-12.741
			c13.185-2.837,23.197-8.671,30.039-17.5H945.099z"/>
		<path style="fill:#1D1E1D;" d="M1020.028,151.872v36.452c0,8.281-0.451,14.311-1.351,18.091c-0.901,3.78-2.768,7.314-5.603,10.598
			c-2.836,3.286-6.256,5.648-10.261,7.088c-4.006,1.44-8.483,2.16-13.433,2.16c-6.526,0-11.949-0.754-16.27-2.261
			c-4.319-1.507-7.762-3.858-10.327-7.054c-2.565-3.195-4.388-6.558-5.468-10.092c-1.08-3.532-1.62-9.146-1.62-16.842v-38.14
			c0-10.035,0.866-17.551,2.599-22.546c1.732-4.996,5.175-9,10.328-12.016c5.152-3.015,11.396-4.523,18.732-4.523
			c5.984,0,11.34,1.046,16.065,3.139c4.726,2.092,8.258,4.647,10.599,7.662c2.339,3.016,3.926,6.413,4.758,10.193
			C1019.611,137.562,1020.028,143.593,1020.028,151.872z M992.756,142.692c0-5.806-0.282-9.439-0.844-10.902
			c-0.563-1.462-1.88-2.194-3.949-2.194c-2.025,0-3.365,0.776-4.017,2.329c-0.653,1.553-0.979,5.142-0.979,10.767v53.327
			c0,6.346,0.305,10.171,0.912,11.476c0.607,1.306,1.924,1.958,3.949,1.958s3.352-0.765,3.982-2.295
			c0.629-1.529,0.945-4.972,0.945-10.328V142.692z"/>
		<path style="fill:#1D1E1D;" d="M1094.146,151.872v36.452c0,8.281-0.45,14.311-1.351,18.091c-0.9,3.78-2.768,7.314-5.602,10.598
			c-2.836,3.286-6.256,5.648-10.262,7.088c-4.006,1.44-8.482,2.16-13.433,2.16c-6.526,0-11.948-0.754-16.269-2.261
			s-7.763-3.858-10.328-7.054c-2.564-3.195-4.387-6.558-5.467-10.092c-1.08-3.532-1.621-9.146-1.621-16.842v-38.14
			c0-10.035,0.866-17.551,2.6-22.546c1.731-4.996,5.174-9,10.328-12.016c5.152-3.015,11.396-4.523,18.732-4.523
			c5.984,0,11.34,1.046,16.064,3.139c4.727,2.092,8.258,4.647,10.599,7.662c2.339,3.016,3.926,6.413,4.759,10.193
			C1093.729,137.562,1094.146,143.593,1094.146,151.872z M1066.875,142.692c0-5.806-0.282-9.439-0.844-10.902
			c-0.563-1.462-1.88-2.194-3.948-2.194c-2.025,0-3.365,0.776-4.018,2.329c-0.652,1.553-0.979,5.142-0.979,10.767v53.327
			c0,6.346,0.305,10.171,0.912,11.476c0.607,1.306,1.924,1.958,3.948,1.958c2.025,0,3.353-0.765,3.983-2.295
			c0.629-1.529,0.944-4.972,0.944-10.328V142.692z"/>
		<path style="fill:#1D1E1D;" d="M937.809,280.777v13.838c-5.627,0-8.945,0.259-9.957,0.776c-1.013,0.518-1.52,1.991-1.52,4.421
			v2.835h11.477v14.176h-6.48v73.241h-27.271v-73.241h-5.604v-14.176h5.604c0-5.895,0.202-9.832,0.607-11.813
			c0.404-1.979,1.406-3.747,3.004-5.299c1.597-1.553,3.836-2.734,6.717-3.544c2.879-0.81,7.357-1.215,13.433-1.215H937.809z"/>
		<path style="fill:#1D1E1D;" d="M1004.704,331.944v21.938c0,8.057-0.404,13.963-1.215,17.72c-0.81,3.758-2.543,7.269-5.197,10.53
			c-2.656,3.264-6.064,5.671-10.227,7.224c-4.163,1.552-8.944,2.328-14.345,2.328c-6.03,0-11.138-0.664-15.323-1.991
			s-7.438-3.329-9.754-6.008c-2.318-2.677-3.973-5.917-4.962-9.72c-0.99-3.803-1.485-9.507-1.485-17.112v-22.951
			c0-8.325,0.9-14.828,2.701-19.509c1.799-4.68,5.039-8.438,9.72-11.273c4.681-2.835,10.665-4.253,17.956-4.253
			c6.119,0,11.374,0.912,15.762,2.734c4.389,1.823,7.773,4.197,10.16,7.122c2.385,2.926,4.016,5.94,4.894,9.045
			C1004.266,320.874,1004.704,325.599,1004.704,331.944z M977.433,325.194c0-4.59-0.248-7.481-0.743-8.674
			c-0.495-1.192-1.553-1.789-3.172-1.789c-1.621,0-2.701,0.597-3.24,1.789c-0.541,1.193-0.811,4.084-0.811,8.674v40.435
			c0,4.23,0.27,6.986,0.811,8.269c0.539,1.283,1.597,1.924,3.172,1.924c1.621,0,2.689-0.584,3.207-1.755
			c0.517-1.17,0.776-3.689,0.776-7.561V325.194z"/>
		<path style="fill:#1D1E1D;" d="M1075.38,331.944v21.938c0,8.057-0.404,13.963-1.215,17.72c-0.81,3.758-2.543,7.269-5.197,10.53
			c-2.656,3.264-6.064,5.671-10.227,7.224c-4.163,1.552-8.944,2.328-14.345,2.328c-6.03,0-11.138-0.664-15.323-1.991
			s-7.438-3.329-9.754-6.008c-2.318-2.677-3.973-5.917-4.962-9.72c-0.99-3.803-1.485-9.507-1.485-17.112v-22.951
			c0-8.325,0.9-14.828,2.701-19.509c1.799-4.68,5.039-8.438,9.72-11.273c4.681-2.835,10.665-4.253,17.956-4.253
			c6.119,0,11.374,0.912,15.762,2.734c4.389,1.823,7.773,4.197,10.16,7.122c2.385,2.926,4.016,5.94,4.894,9.045
			C1074.942,320.874,1075.38,325.599,1075.38,331.944z M1048.109,325.194c0-4.59-0.248-7.481-0.743-8.674
			c-0.495-1.192-1.553-1.789-3.172-1.789c-1.621,0-2.701,0.597-3.24,1.789c-0.541,1.193-0.811,4.084-0.811,8.674v40.435
			c0,4.23,0.27,6.986,0.811,8.269c0.539,1.283,1.597,1.924,3.172,1.924c1.621,0,2.689-0.584,3.207-1.755
			c0.517-1.17,0.776-3.689,0.776-7.561V325.194z"/>
		<path style="fill:#1D1E1D;" d="M1113.115,288.54v14.108h7.358v14.176h-7.358v47.927c0,5.896,0.304,9.181,0.911,9.855
			s3.139,1.013,7.594,1.013v14.445h-11.002c-6.211,0-10.645-0.258-13.299-0.776c-2.656-0.517-4.995-1.709-7.021-3.577
			c-2.024-1.867-3.285-4.005-3.78-6.413c-0.496-2.406-0.742-8.066-0.742-16.977v-45.498h-5.873v-14.176h5.873V288.54H1113.115z"/>
		<path style="fill:#1D1E1D;" d="M1153.752,280.777v25.871c2.25-2.616,4.759-4.566,7.526-5.852c2.768-1.285,5.771-1.928,9.012-1.928
			c3.735,0,6.976,0.585,9.721,1.755c2.744,1.171,4.838,2.813,6.277,4.928c1.44,2.116,2.307,4.185,2.6,6.21
			c0.292,2.025,0.439,6.346,0.439,12.961v40.367c0,6.57-0.439,11.465-1.316,14.682c-0.879,3.218-2.938,6.008-6.178,8.37
			c-3.24,2.363-7.088,3.544-11.543,3.544c-3.195,0-6.176-0.699-8.943-2.097s-5.299-3.494-7.595-6.29l-1.755,6.767h-25.516V280.777
			H1153.752z M1162.055,325.936c0-4.634-0.294-7.662-0.878-9.079c-0.585-1.417-1.733-2.126-3.442-2.126
			c-1.666,0-2.746,0.619-3.24,1.856c-0.496,1.238-0.743,4.354-0.743,9.349v38.612c0,4.815,0.28,7.897,0.845,9.248
			c0.562,1.35,1.676,2.024,3.341,2.024c1.71,0,2.823-0.697,3.341-2.092s0.777-4.748,0.777-10.059V325.936z"/>
		<path style="fill:#1D1E1D;" d="M1222.672,335.184h-25.584v-6.008c0-6.93,0.799-12.274,2.396-16.032
			c1.597-3.757,4.803-7.076,9.619-9.957c4.814-2.879,11.07-4.32,18.766-4.32c9.225,0,16.178,1.632,20.859,4.894
			c4.68,3.264,7.492,7.269,8.438,12.016c0.945,4.749,1.418,14.525,1.418,29.33v44.957h-26.529v-7.981
			c-1.666,3.201-3.814,5.602-6.446,7.201c-2.633,1.601-5.772,2.4-9.417,2.4c-4.771,0-9.146-1.339-13.129-4.016
			c-3.982-2.678-5.975-8.54-5.975-17.585v-7.358c0-6.705,1.057-11.272,3.173-13.703c2.114-2.43,7.358-5.265,15.728-8.505
			c8.955-3.51,13.748-5.873,14.379-7.088c0.63-1.215,0.945-3.689,0.945-7.426c0-4.68-0.35-7.729-1.047-9.146
			s-1.855-2.126-3.477-2.126c-1.846,0-2.992,0.597-3.442,1.789c-0.45,1.193-0.675,4.287-0.675,9.282V335.184z M1231.313,347.47
			c-4.365,3.196-6.896,5.873-7.594,8.033c-0.699,2.16-1.047,5.266-1.047,9.315c0,4.636,0.304,7.628,0.911,8.979
			c0.607,1.35,1.812,2.024,3.611,2.024c1.71,0,2.823-0.528,3.342-1.586c0.517-1.057,0.776-3.836,0.776-8.337V347.47z"/>
		<path style="fill:#1D1E1D;" d="M1296.048,280.777v109.288h-28.081V280.777H1296.048z"/>
		<path style="fill:#1D1E1D;" d="M1333.918,280.777v109.288h-28.081V280.777H1333.918z"/>
		<path style="fill:#1D1E1D;" d="M937.809,446.673v13.838c-5.627,0-8.945,0.26-9.957,0.777c-1.013,0.518-1.52,1.991-1.52,4.421
			v2.835h11.477v14.176h-6.48v73.241h-27.271V482.72h-5.604v-14.176h5.604c0-5.895,0.202-9.832,0.607-11.812
			c0.404-1.98,1.406-3.747,3.004-5.3c1.597-1.552,3.836-2.733,6.717-3.544c2.879-0.81,7.357-1.215,13.433-1.215H937.809z"/>
		<path style="fill:#1D1E1D;" d="M971.088,446.673v14.243h-28.081v-14.243H971.088z M971.088,466.384v89.577h-28.081v-89.577
			H971.088z"/>
		<path style="fill:#1D1E1D;" d="M1042.641,512.759h-35.304v19.373c0,4.051,0.292,6.661,0.878,7.831
			c0.584,1.171,1.709,1.755,3.375,1.755c2.068,0,3.453-0.776,4.15-2.329s1.047-4.557,1.047-9.012v-11.812h25.854v6.615
			c0,5.535-0.349,9.788-1.046,12.758c-0.698,2.97-2.329,6.143-4.894,9.519c-2.566,3.375-5.817,5.906-9.755,7.594
			c-3.938,1.688-8.876,2.531-14.817,2.531c-5.76,0-10.846-0.833-15.256-2.498c-4.41-1.664-7.842-3.948-10.293-6.852
			c-2.454-2.902-4.152-6.097-5.098-9.585c-0.944-3.487-1.417-8.562-1.417-15.222v-26.124c0-7.831,1.057-14.007,3.173-18.53
			c2.114-4.522,5.579-7.987,10.395-10.396c4.815-2.406,10.352-3.611,16.606-3.611c7.649,0,13.962,1.452,18.935,4.354
			s8.461,6.75,10.463,11.543s3.004,11.532,3.004,20.217V512.759z M1015.303,498.178v-6.548c0-4.634-0.248-7.627-0.743-8.978
			s-1.509-2.025-3.038-2.025c-1.89,0-3.061,0.574-3.51,1.722c-0.45,1.147-0.675,4.242-0.675,9.281v6.548H1015.303z"/>
		<path style="fill:#1D1E1D;" d="M1079.633,446.673v109.288h-28.082V446.673H1079.633z"/>
		<path style="fill:#1D1E1D;" d="M1151.457,446.673v109.288h-27.271v-6.497c-2.61,2.706-5.356,4.735-8.235,6.088
			c-2.881,1.353-5.896,2.029-9.045,2.029c-4.23,0-7.898-1.114-11.004-3.342s-5.096-4.803-5.974-7.729
			c-0.878-2.925-1.316-7.695-1.316-14.311v-41.92c0-6.886,0.438-11.768,1.316-14.648c0.878-2.879,2.891-5.41,6.042-7.594
			c3.148-2.183,6.906-3.274,11.272-3.274c3.375,0,6.469,0.61,9.282,1.827c2.812,1.218,5.365,3.045,7.661,5.48v-25.398H1151.457z
			 M1124.185,488.931c0-3.285-0.282-5.49-0.844-6.616c-0.563-1.124-1.677-1.688-3.341-1.688c-1.621,0-2.713,0.507-3.274,1.52
			c-0.563,1.012-0.844,3.273-0.844,6.784v43.877c0,3.645,0.27,6.041,0.81,7.188s1.575,1.722,3.105,1.722
			c1.755,0,2.925-0.642,3.51-1.924c0.584-1.282,0.878-4.422,0.878-9.417V488.931z"/>
	</g>
</g>
<g id="backgroud01">
	<g id="million_1_">
		<path style="fill:#1D1E1D;" d="M315.468,137.907h-27.271c0-5.085-0.057-8.291-0.168-9.619c-0.113-1.327-0.653-2.44-1.62-3.341
			c-0.968-0.9-2.285-1.35-3.949-1.35c-1.395,0-2.543,0.428-3.442,1.282c-0.901,0.855-1.417,1.958-1.553,3.308
			c-0.135,1.351-0.203,4.074-0.203,8.168v17.416c1.395-2.925,3.443-5.119,6.143-6.582c2.7-1.462,6.03-2.194,9.99-2.194
			c4.996,0,9.405,1.35,13.231,4.05c3.824,2.7,6.254,5.94,7.29,9.72c1.035,3.78,1.553,8.889,1.553,15.323v8.708
			c0,7.651-0.293,13.344-0.877,17.078c-0.585,3.736-2.149,7.189-4.691,10.362c-2.543,3.172-6.031,5.636-10.463,7.392
			c-4.433,1.755-9.597,2.632-15.492,2.632c-7.336,0-13.344-1.012-18.023-3.038c-4.681-2.025-8.292-4.938-10.834-8.742
			c-2.543-3.802-4.028-7.796-4.455-11.982c-0.428-4.185-0.641-12.308-0.641-24.369v-15.121c0-13.005,0.191-21.702,0.574-26.09
			c0.382-4.388,1.946-8.54,4.691-12.455c2.745-3.915,6.491-6.852,11.239-8.809c4.748-1.958,10.227-2.937,16.437-2.937
			c7.65,0,13.928,1.238,18.833,3.713c4.905,2.476,8.415,5.963,10.531,10.463C314.41,125.397,315.468,131.067,315.468,137.907z
			 M288.196,171.996c0-3.87-0.428-6.525-1.282-7.965c-0.855-1.44-2.251-2.16-4.186-2.16c-1.89,0-3.274,0.687-4.151,2.059
			c-0.877,1.374-1.316,4.062-1.316,8.067v19.778c0,4.816,0.416,7.965,1.249,9.451c0.832,1.485,2.216,2.228,4.151,2.228
			c1.17,0,2.385-0.574,3.646-1.722c1.259-1.147,1.89-4.241,1.89-9.281V171.996z"/>
		<path style="fill:#1D1E1D;" d="M343.009,195.892v22.276h-20.588v-22.276H343.009z"/>
		<path style="fill:#1D1E1D;" d="M401.602,156.234c4.14,1.396,7.223,3.681,9.248,6.856c2.025,3.175,3.038,10.615,3.038,22.321
			c0,8.69-0.99,15.433-2.97,20.228c-1.981,4.795-5.4,8.442-10.26,10.94c-4.86,2.499-11.094,3.749-18.699,3.749
			c-8.64,0-15.424-1.452-20.352-4.354c-4.928-2.902-8.168-6.457-9.721-10.665c-1.552-4.208-2.329-11.51-2.329-21.905v-8.64h27.271
			v17.753c0,4.725,0.28,7.729,0.844,9.012c0.562,1.282,1.811,1.924,3.746,1.924c2.115,0,3.51-0.81,4.186-2.43
			c0.675-1.62,1.012-5.85,1.012-12.691v-7.56c0-4.185-0.472-7.245-1.417-9.181c-0.945-1.934-2.34-3.207-4.185-3.814
			c-1.846-0.607-5.423-0.956-10.733-1.046v-15.863c6.48,0,10.485-0.247,12.015-0.743c1.53-0.495,2.633-1.575,3.308-3.24
			c0.675-1.665,1.012-4.275,1.012-7.831v-6.075c0-3.824-0.395-6.345-1.181-7.561c-0.788-1.215-2.015-1.822-3.679-1.822
			c-1.89,0-3.185,0.641-3.882,1.924c-0.698,1.282-1.046,4.017-1.046,8.202v8.978h-27.271v-9.315c0-10.44,2.385-17.494,7.155-21.163
			c4.77-3.667,12.353-5.501,22.749-5.501c13.005,0,21.826,2.541,26.461,7.623c4.634,5.082,6.953,12.142,6.953,21.181
			c0,6.117-0.833,10.535-2.498,13.256C408.712,151.502,405.787,153.986,401.602,156.234z"/>
		<path style="fill:#1D1E1D;" d="M73.941,294.488l-0.472,8.522c2.115-3.38,4.634-5.916,7.56-7.607
			c2.925-1.689,6.255-2.536,9.991-2.536c7.29,0,13.028,3.382,17.213,10.143c2.295-3.38,4.882-5.916,7.763-7.607
			c2.879-1.689,6.075-2.536,9.585-2.536c4.635,0,8.472,1.125,11.509,3.375c3.038,2.25,4.984,5.007,5.839,8.269
			c0.854,3.263,1.283,8.562,1.283,15.897v63.655h-26.461v-58.39c0-7.65-0.259-12.387-0.776-14.209
			c-0.518-1.822-1.722-2.734-3.612-2.734c-1.935,0-3.184,0.901-3.746,2.7c-0.563,1.8-0.844,6.548-0.844,14.243v58.39H82.312V327.16
			c0-8.775-0.214-14.041-0.642-15.796c-0.428-1.755-1.609-2.633-3.543-2.633c-1.215,0-2.251,0.462-3.105,1.384
			c-0.855,0.923-1.328,2.048-1.417,3.375c-0.091,1.328-0.135,4.151-0.135,8.472v62.103H47.007v-89.577H73.941z"/>
		<path style="fill:#1D1E1D;" d="M181.676,274.777v14.243h-28.081v-14.243H181.676z M181.676,294.488v89.577h-28.081v-89.577
			H181.676z"/>
		<path style="fill:#1D1E1D;" d="M219.546,274.777v109.288h-28.081V274.777H219.546z"/>
		<path style="fill:#1D1E1D;" d="M257.415,274.777v109.288h-28.081V274.777H257.415z"/>
		<path style="fill:#1D1E1D;" d="M295.284,274.777v14.243h-28.081v-14.243H295.284z M295.284,294.488v89.577h-28.081v-89.577
			H295.284z"/>
		<path style="fill:#1D1E1D;" d="M366.77,325.944v21.938c0,8.057-0.405,13.963-1.215,17.72c-0.81,3.758-2.543,7.269-5.198,10.53
			c-2.656,3.264-6.065,5.671-10.227,7.224c-4.163,1.552-8.944,2.328-14.344,2.328c-6.031,0-11.138-0.664-15.323-1.991
			s-7.437-3.329-9.754-6.008c-2.318-2.677-3.972-5.917-4.961-9.72c-0.99-3.803-1.485-9.507-1.485-17.112v-22.951
			c0-8.325,0.899-14.828,2.7-19.509c1.799-4.68,5.04-8.438,9.72-11.273c4.68-2.835,10.666-4.253,17.956-4.253
			c6.12,0,11.374,0.912,15.762,2.734c4.388,1.823,7.773,4.197,10.16,7.122c2.385,2.926,4.016,5.94,4.894,9.045
			C366.332,314.874,366.77,319.599,366.77,325.944z M339.499,319.194c0-4.59-0.248-7.481-0.743-8.674
			c-0.496-1.192-1.553-1.789-3.173-1.789s-2.7,0.597-3.24,1.789c-0.54,1.193-0.81,4.084-0.81,8.674v40.435
			c0,4.23,0.27,6.986,0.81,8.269c0.54,1.283,1.597,1.924,3.173,1.924c1.62,0,2.688-0.584,3.207-1.755
			c0.517-1.17,0.776-3.689,0.776-7.561V319.194z"/>
		<path style="fill:#1D1E1D;" d="M403.492,294.488l-0.473,8.252c1.98-3.291,4.398-5.759,7.257-7.404
			c2.857-1.646,6.153-2.468,9.889-2.468c4.68,0,8.505,1.104,11.476,3.308c2.97,2.205,4.882,4.984,5.738,8.336
			c0.854,3.353,1.283,8.944,1.283,16.774v62.778H411.39v-62.035c0-6.165-0.203-9.923-0.607-11.273
			c-0.405-1.35-1.53-2.025-3.375-2.025c-1.936,0-3.151,0.776-3.646,2.329c-0.496,1.552-0.743,5.704-0.743,12.455v60.55h-27.271
			v-89.577H403.492z"/>
		<path style="fill:#1D1E1D;" d="M327.078,489.006h-24.166v-4.86c0-4.141-0.236-6.762-0.709-7.864
			c-0.472-1.103-1.654-1.654-3.544-1.654c-1.53,0-2.678,0.507-3.442,1.52c-0.766,1.012-1.147,2.531-1.147,4.556
			c0,2.746,0.191,4.76,0.574,6.042c0.382,1.282,1.529,2.689,3.442,4.219c1.913,1.53,5.839,3.758,11.779,6.683
			c7.92,3.871,13.118,7.517,15.593,10.936c2.475,3.421,3.713,8.394,3.713,14.919c0,7.29-0.945,12.792-2.835,16.504
			c-1.89,3.713-5.052,6.571-9.484,8.573c-4.433,2.002-9.777,3.004-16.032,3.004c-6.931,0-12.859-1.08-17.787-3.24
			s-8.314-5.085-10.159-8.775c-1.846-3.689-2.768-9.271-2.768-16.741v-4.319h24.166v5.67c0,4.815,0.304,7.943,0.912,9.383
			c0.607,1.44,1.811,2.16,3.611,2.16c1.935,0,3.285-0.483,4.05-1.451c0.765-0.968,1.147-3.004,1.147-6.109
			c0-4.274-0.496-6.953-1.485-8.033c-1.036-1.08-6.323-4.274-15.863-9.585c-8.011-4.5-12.894-8.583-14.648-12.252
			c-1.755-3.667-2.633-8.021-2.633-13.062c0-7.155,0.945-12.432,2.835-15.83c1.89-3.397,5.096-6.018,9.619-7.864
			c4.522-1.845,9.776-2.768,15.762-2.768c5.94,0,10.991,0.755,15.154,2.262c4.162,1.508,7.358,3.499,9.585,5.974
			c2.228,2.476,3.578,4.771,4.05,6.886c0.473,2.116,0.708,5.424,0.708,9.923V489.006z"/>
		<path style="fill:#1D1E1D;" d="M398.295,460.384v102.335h-27.271v-19.997c-2.656,3.878-5.097,6.324-7.324,7.338
			s-4.984,1.521-8.269,1.521c-4.771,0-8.719-1.125-11.847-3.375c-3.128-2.25-5.231-5.164-6.312-8.742
			c-1.08-3.577-1.62-9.056-1.62-16.437v-39.489c0-6.076,0.405-10.609,1.215-13.603c0.81-2.992,2.756-5.603,5.839-7.83
			c3.082-2.228,6.739-3.342,10.969-3.342c3.419,0,6.57,0.767,9.45,2.3c2.879,1.533,5.512,3.854,7.898,6.965l0.473-7.645H398.295z
			 M371.023,484.753c0-3.96-0.304-6.638-0.911-8.033c-0.607-1.395-1.699-2.093-3.274-2.093c-1.53,0-2.565,0.607-3.105,1.823
			c-0.54,1.215-0.81,3.982-0.81,8.303v39.895c0,4.815,0.27,7.864,0.81,9.146s1.643,1.924,3.308,1.924
			c1.575,0,2.632-0.663,3.172-1.991c0.54-1.327,0.81-4.219,0.81-8.675V484.753z"/>
		<path style="fill:#1D1E1D;" d="M442.847,440.673v13.838c-5.626,0-8.944,0.26-9.957,0.777c-1.012,0.518-1.519,1.991-1.519,4.421
			v2.835h11.476v14.176h-6.48v73.241h-27.271V476.72h-5.603v-14.176h5.603c0-5.895,0.203-9.832,0.608-11.812
			c0.405-1.98,1.406-3.747,3.004-5.3c1.597-1.552,3.836-2.733,6.716-3.544c2.879-0.81,7.358-1.215,13.433-1.215H442.847z"/>
	</g>
</g>
<g id="equal">
	<g id="equal_1_" style="opacity:0.8;">
		<path style="fill:#FFFFFF;" d="M657.572,313.43h64.938v16.471h-64.938V313.43z M657.572,339.217h64.938v16.471h-64.938V339.217z"
			/>
	</g>
</g>
<g id="icon02">
	<g id="icon01_1_">
		<path style="fill:none;stroke:#FFFFFF;stroke-width:3;stroke-miterlimit:10;" d="M1039.993,262.225
			c15.285,0,30.57-0.086,45.854,0.035c7.933,0.063,13.913,3.838,18.652,10.158c2.531,3.375,3.705,6.746,3.414,10.96
			c-0.322,4.666-0.187,9.376-0.023,14.059c0.075,2.145-0.666,2.621-2.67,2.552c-5.909-0.204-11.826-0.321-17.738-0.278
			c-13.146,0.097-21.716,8.789-21.736,21.975c-0.027,17.41-0.028,34.82,0,52.229c0.021,12.837,8.032,20.827,20.894,21.061
			c6.244,0.114,12.482,0.505,18.726,0.619c1.902,0.035,2.533,0.662,2.504,2.538c-0.087,5.58,0.953,11.389-0.268,16.69
			c-1.716,7.455-5.791,13.942-13.651,16.876c-2.955,1.103-6.024,1.645-9.176,1.655c-29.577,0.095-59.154,0.183-88.731,0.257
			c-0.999,0.003-2.003-0.263-2.997-0.222c-1.885,0.077-2.466-0.733-2.458-2.595c0.061-14.623,0.098-29.248-0.032-43.87
			c-0.021-2.33,1.208-2.715,2.883-3.233c13.26-4.099,22.625-12.234,26.518-25.91c5.461-19.184-4.765-38.643-23.575-44.952
			c-4.953-1.661-6.352-3.562-6.345-8.871c0.018-12.947,0.137-25.894,0.06-38.839c-0.014-2.391,0.717-2.992,3.015-2.943
			c7.81,0.167,15.624,0.14,23.437,0.159c7.814,0.019,15.628,0.004,23.442,0.004C1039.993,262.301,1039.993,262.263,1039.993,262.225
			z"/>
		<path style="fill:none;stroke:#FFFFFF;stroke-width:3;stroke-miterlimit:10;" d="M930.091,262.339
			c15.287,0,30.576,0.064,45.862-0.057c2.875-0.023,3.82,0.732,3.788,3.743c-0.118,11.264-0.149,22.53,0.203,33.798
			c0.245,7.824-2.562,12.564-9.87,14.923c-14.086,4.545-20.729,14.781-22.006,28.557c-1.392,15.022,4.334,27.265,17.191,35.745
			c2.897,1.911,6.028,3.371,9.29,4.558c3.383,1.23,5.084,3.358,5.041,7.272c-0.144,12.941-0.043,25.886,0.135,38.827
			c0.036,2.606-0.436,3.605-3.343,3.739c-12.498,0.575-24.981-0.219-37.47-0.091c-15.951,0.164-31.901,0.298-47.852,0.41
			c-5.048,0.035-10.023-0.563-14.79-2.322c-5.914-2.182-10.191-6.261-13.302-11.665c-0.576-1-0.816-2.03-0.812-3.183
			c0.027-6.584,0.061-13.169-0.017-19.752c-0.022-1.881,0.495-2.438,2.493-2.35c6.682,0.296,13.375,0.422,20.064,0.446
			c11.972,0.042,20.562-7.916,20.733-19.822c0.262-18.186,0.256-36.382,0.006-54.569c-0.167-12.167-7.529-19.257-19.712-19.975
			c-6.907-0.407-13.816-0.673-20.73-0.513c-2.064,0.048-2.944-0.367-2.881-2.706c0.17-6.245,0.05-12.497,0.067-18.747
			c0.002-0.77-0.13-1.733,0.259-2.282c5.368-7.588,11.492-14.02,21.791-13.995C899.516,262.366,914.803,262.339,930.091,262.339z"/>
		<path style="fill:none;stroke:#FFFFFF;stroke-width:3;stroke-miterlimit:10;" d="M862.168,347.761
			c0-11.596,0.08-23.193-0.06-34.787c-0.032-2.695,0.715-3.325,3.389-3.182c6.005,0.322,12.034,0.2,18.053,0.284
			c8.082,0.112,11.402,3.358,11.441,11.435c0.083,17.168,0.109,34.336,0.09,51.504c-0.008,7.353-4.631,12.339-11.905,12.605
			c-6.34,0.232-12.699-0.11-19.033,0.494c-2.438,0.232-1.965-1.525-1.966-2.896C862.162,371.399,862.168,359.58,862.168,347.761z"/>
		<path style="fill:none;stroke:#FFFFFF;stroke-width:3;stroke-miterlimit:10;" d="M1107.84,348.132
			c0,11.496-0.085,22.994,0.062,34.488c0.035,2.731-0.62,3.742-3.488,3.551c-5.448-0.361-10.919-0.368-16.378-0.569
			c-7.731-0.284-11.833-4.279-11.87-11.912c-0.084-17.295-0.08-34.591-0.001-51.886c0.035-7.536,3.727-11.358,11.263-11.689
			c6.128-0.269,12.272-0.158,18.404-0.369c2.466-0.085,1.998,1.521,2,2.891C1107.847,324.47,1107.84,336.301,1107.84,348.132z"/>
		<path style="fill:none;stroke:#FFFFFF;stroke-width:3;stroke-miterlimit:10;" d="M979.325,347.595
			c0,7.461-0.108,14.924,0.057,22.381c0.06,2.713-0.769,3.199-3.262,2.583c-10.981-2.712-18.506-13.409-17.957-25.732
			c0.55-12.328,7.107-20.954,18.308-24.342c2.201-0.666,2.947-0.45,2.903,2.06C979.24,332.226,979.325,339.911,979.325,347.595z"/>
		<path style="fill:none;stroke:#FFFFFF;stroke-width:3;stroke-miterlimit:10;" d="M990.622,347.281
			c0-7.473,0.089-14.948-0.049-22.419c-0.047-2.561,0.701-2.905,3.098-2.396c10.905,2.317,23.163,19.644,15.658,35.631
			c-3.205,6.827-7.945,12.028-15.436,14.319c-2.407,0.736-3.388,0.478-3.327-2.382C990.73,362.453,990.622,354.866,990.622,347.281z
			"/>
	</g>
</g>
<g id="icon01">
	<g id="icon02_1_">
		
			<line style="fill:none;stroke:#FFFFFF;stroke-width:3;stroke-miterlimit:10;" x1="284.586" y1="437.381" x2="555.493" y2="437.764"/>
		
			<line style="fill:none;stroke:#FFFFFF;stroke-width:3;stroke-miterlimit:10;" x1="332.867" y1="262.169" x2="332.867" y2="248.475"/>
		<polyline style="fill:none;stroke:#FFFFFF;stroke-width:3;stroke-miterlimit:10;" points="332.867,237.746 332.867,232.764 
			483.072,232.764 483.072,437.381 332.867,437.381 332.867,274.305 		"/>
		
			<line style="fill:none;stroke:#FFFFFF;stroke-width:3;stroke-miterlimit:10;" x1="299.53" y1="366.922" x2="299.53" y2="437.381"/>
		<polyline style="fill:none;stroke:#FFFFFF;stroke-width:3;stroke-miterlimit:10;" points="332.878,324.368 299.53,324.344 
			299.53,357.682 		"/>
		<polyline style="fill:none;stroke:#FFFFFF;stroke-width:3;stroke-miterlimit:10;" points="482.689,324.368 516.037,324.344 
			516.037,437.381 		"/>
		
			<line style="fill:none;stroke:#FFFFFF;stroke-width:3;stroke-miterlimit:10;" x1="332.483" y1="373.391" x2="482.689" y2="373.391"/>
		
			<line style="fill:none;stroke:#FFFFFF;stroke-width:3;stroke-miterlimit:10;" x1="332.483" y1="304.419" x2="482.689" y2="304.419"/>
		
			<rect x="385.362" y="246.942" style="fill:none;stroke:#FFFFFF;stroke-width:3;stroke-miterlimit:10;" width="42.15" height="42.15"/>
		
			<rect x="435.175" y="327.409" style="fill:none;stroke:#FFFFFF;stroke-width:3;stroke-miterlimit:10;" width="22.991" height="22.991"/>
		
			<rect x="310.259" y="414.774" style="fill:none;stroke:#FFFFFF;stroke-width:3;stroke-miterlimit:10;" width="12.262" height="12.262"/>
		
			<rect x="493.418" y="414.774" style="fill:none;stroke:#FFFFFF;stroke-width:3;stroke-miterlimit:10;" width="12.262" height="12.262"/>
		
			<line style="fill:none;stroke:#FFFFFF;stroke-width:3;stroke-miterlimit:10;" x1="442.839" y1="246.942" x2="442.839" y2="289.092"/>
		
			<line style="fill:none;stroke:#FFFFFF;stroke-width:3;stroke-miterlimit:10;" x1="457.399" y1="246.942" x2="457.399" y2="289.092"/>
		
			<line style="fill:none;stroke:#FFFFFF;stroke-width:3;stroke-miterlimit:10;" x1="313.325" y1="335.073" x2="313.325" y2="351.933"/>
		
			<line style="fill:none;stroke:#FFFFFF;stroke-width:3;stroke-miterlimit:10;" x1="318.689" y1="335.073" x2="318.689" y2="351.933"/>
		
			<line style="fill:none;stroke:#FFFFFF;stroke-width:3;stroke-miterlimit:10;" x1="496.483" y1="335.073" x2="496.483" y2="351.933"/>
		
			<line style="fill:none;stroke:#FFFFFF;stroke-width:3;stroke-miterlimit:10;" x1="501.848" y1="335.073" x2="501.848" y2="351.933"/>
		
			<line style="fill:none;stroke:#FFFFFF;stroke-width:3;stroke-miterlimit:10;" x1="350.876" y1="348.101" x2="419.848" y2="348.101"/>
		
			<line style="fill:none;stroke:#FFFFFF;stroke-width:3;stroke-miterlimit:10;" x1="350.876" y1="427.035" x2="419.848" y2="427.035"/>
		
			<rect x="469.661" y="246.942" style="fill:none;stroke:#FFFFFF;stroke-width:3;stroke-miterlimit:10;" width="3.065" height="3.065"/>
		
			<rect x="469.661" y="316.68" style="fill:none;stroke:#FFFFFF;stroke-width:3;stroke-miterlimit:10;" width="3.065" height="3.065"/>
		
			<rect x="469.661" y="386.419" style="fill:none;stroke:#FFFFFF;stroke-width:3;stroke-miterlimit:10;" width="3.065" height="3.065"/>
		
			<line style="fill:none;stroke:#FFFFFF;stroke-width:3;stroke-miterlimit:10;" x1="253.549" y1="437.382" x2="271.941" y2="437.381"/>
	</g>
</g>
</svg>
