<svg xmlns="http://www.w3.org/2000/svg" viewBox="0 0 824.5 650.8">

    <g id="background">
        <path id="background-2" data-name="background" class="cls-1" d="M500.86,622.45c-1.84-1-3.45-1.9-5.92-1.49a7.45,7.45,0,0,1-7.54-3.85c-.15-.25-.31-.72-.47-.72-3.74,0-4.24-3.24-5.52-5.89-.7-1.47-.49-2.27.51-3.16,1.32-1.16,2.74-2.65,1.72-4.35s-3-3.09-5.35-1.72c-.17.11-.45.3-.52.24-3.41-2.71-8.87.08-11.52-4.91-1-1.83-2.15-3.46-4.95-1.28-2.11,1.65-5.22,1.75-5.14,5.62a1.19,1.19,0,0,1-1.68,1.17c-1.22-.56-1.8.38-2.54,1-.48.44-.85,1.11-1.74.63-3.26-1.75-3.39-1.68-4.85,1.86a6.21,6.21,0,0,1-.47.78c-.89-.15-1.25-1-1.84-1.49a3,3,0,0,1-.82-.88c-1.32-2.84-2.49,1.94-3.86,0-1.91-2.64-2.51-.36-3.42,1-1.17,1.82-2.2,4.4-4.45.75-.65-1.06-2.41-1.32-3.58-2.07-1.48-1-2.32-.39-3.09,1-2.17,4-3.48,4.66-7.47,3.09-1.75-.69-2,0-2.79,1.4-1.82,3-1.15,5.49.63,8.09,1.21,1.76.54,3.84.55,5.77,0,1.34-.27,2.68.53,4.09-1-.19-2-.68-2.67-.44-3.48,1.18-3.81-1.31-4.23-3.79a7,7,0,0,0-.17-.91c-1.08-3.7-3-4.11-5.66-1.22-1.16,1.26-6.23,2.53-7.62,2s.14-2-.69-2.38c-2.33-1-2.8-2.64-2.31-5a1.09,1.09,0,0,0-1.18-1.13c-2.56.3-4.83-1.86-7.51-.86-.93.35-1.6,0-1.25-1.52.57-2.41,2.6-4.48,1.61-7.32-.11-.32.78-1.1,1.28-1.58,1-1,1.65-1.86,1-3.47a2.79,2.79,0,0,0-3.36-1.79c-2.9.63-4-.54-4.85-3.38-.7-2.45-.54-5.27-2.76-7.32-1.16-1.06.74-2,1.41-2.88.46-.6,1.55-.93.88-2-.46-.71-1.23-.33-1.91-.18a7.57,7.57,0,0,1-2.6.36c-4.66-.61-8.82.79-12.91,3.41,2.74-3.29,2.75-6.11-.13-9.22a2.77,2.77,0,0,1,1.28-4.07c1.58-.58,1.62-1.33,1.06-2.79-.66-1.71-.3-3.24,1.72-3.64a2.18,2.18,0,0,0,1.65-1.18c1.31-3.23,5-4.09,6.34-7.26a1.52,1.52,0,0,1,1.46-.87c.65-.05,1.37-.49,1.28-1.06-.94-5.9,2.23-11.5,1-17.47-.55-2.59-.22-5.38-.36-8.08-.12-2.4-3.11-4.46-4.89-3.07-1.45,1.12-1.28-.2-1.42-.67a27,27,0,0,1-1.3-5.41,7,7,0,0,0-4-5.75c-1.64-.86-2.14-3.51-4.45-3.05s-.92,3.38-2.48,4.5a3.44,3.44,0,0,0-1.27,3.6c.61,2.23-1.22,2.6-2.11,3.61s-1.68-.37-2.52-.63c-3.27-1-5.53-3.78-8.6-5.16-3.64-1.64-12-1-13.34,2-1.66,3.57-4.61,4.65-7.5,6-2,.95-4.05,2.17-6.45,1.48a.78.78,0,0,0-1.1.68c-.59,4.08-4.33,5.65-6.49,8.39-1.8,2.28-6,2-8.73,1.2-3.65-1.1-6.89-.3-10.32.23-2.21.33-3.4-1.15-3-3.55.71-4.39.41-4.79-3.83-5.24-1.66-.18-2.85-.54-2.07-2.91,1.06-3.25-2.57-6.72-5.86-6.29a20.62,20.62,0,0,1-12.12-1.55,17.54,17.54,0,0,0-7.27-1.24c-2.32,0-4.39,2.19-5.6,4.86-.72,1.6-2.75,2.37-3.19,4.33s-2.71,2.35-3.12,4.49c-1.8-2-.18-3.91,0-5.67.17-1.53.33-3.07-.53-4.15-1.13-1.43-2.33-2.87-4.64-1.1a10,10,0,0,1-8,1.89c-.59-.11-1.38-.32-1.67.22-.8,1.49-2.09.84-3.17,1.18-4.24,1.33-7-1.51-10.22-3.26-1.66-.92-3.08-1.75-4.28.76-.92,1.92-2.14.8-3.08-.16-.59-.61.23-2.48-1.33-2.15-1.13.23-1.35,1.65-1.57,3.22a22.59,22.59,0,0,1-2.47-3.69c-1.26-3.06-3.31-3.07-5.94-2.37-3.09.82-3.76,0-2.86-3.17.21-.72.46-1.42-.31-1.93s-1.57-1-2.43-.21c-1.64,1.5-3,1-4.34-.54a4.86,4.86,0,0,0-1.72-1.13c-2.18-1.09-4-2.45-4.45-5.35-.63-3.93-3.21-5.19-6.24-2.93-2.11,1.57-3.06.95-3.95-1.1a8.89,8.89,0,0,0-6.07-5.44,9,9,0,0,1-5-3.51A9.21,9.21,0,0,0,154,488c-.66-.34-1.48-.31-1.85-1.33-1.91-5.24-6.22-4.87-10.4-4.87-.9,0-1.49.22-1.35,1.08.4,2.42-1.68,3.43-2.31,5.53-3-5.9-8.34-7.58-13.46-9.44a3.5,3.5,0,0,1-2.3-1.93,8.72,8.72,0,0,0-5.31-4.48c-1.76-.56-3.27-2.51-5.23-.36-.22.24-1.14-.11-1.68-.34-1.22-.52-4.45-7-4-8.26a2.4,2.4,0,0,0-.38-2.82c-.32-.37-.8-1.05-.68-1.32,1.68-3.75-1.66-4.11-3.33-5.59l0,.05c-1.17-2.21-.17-4.65-.54-7-.17-1.06,1.49-1.73,2.69-1.89s1.31.95,1.6,1.78a7.77,7.77,0,0,0,.54,1.08,1.79,1.79,0,0,1,.18.88c1.32,2.29,2.38,1.93,4.38.36,3.91-3.05,1.62-6.46,1.06-9.68-.59-3.4-2-6.42-5-8.41a3.23,3.23,0,0,1-1.15-3.62c0-.09.12-.19.12-.28-.29-3.5-.28-6.85,2.79-9.29,1.48-1.18.3-2.52-.59-2.95-2.29-1.1-4.07-3.19-6.75-3.6-1.92-.29-3-1.39-2.61-3.94.31-1.93-.89-3.78-2-5.38a3.92,3.92,0,0,1-.66-2.91c.12-1,1.77-1.79.59-2.68s-2.79-1.55-4.17-.95c-3.48,1.52-6.46-.06-9.53-1.29a40.05,40.05,0,0,1-4.38-1.83c-.75-.41-1.73-1.21-1.81-1.93-.26-2.29-1.18-2.2-2.74-1.35s-2.49.17-4-1.28c-2.64-2.55-.48-5.07-1-7.51-.83-3.86-2.58-6.36-6.38-6.92-.85-.12-1.65-.2-1.79-1.21-.29-2.14-1.9-2.72-3.43-2.76-2.67-.08-5.12-1.36-7.75-1.28-.91,0-1.39-.27-1.5-1-.19-1.27.8-1.27,1.57-1.2,1.9.18,3.59.46,5.4-1,2.2-1.82,2.63-3.15.32-4.95-1.26-1-1.22-1.59-.93-3.23.54-3.07-1-6-2.36-8.72-.17-.35-.82-.6-.8-.87.29-4.52-4-4.4-6-6.5-.89-.9-2.4-1.76-3.5.19-.59,1.05-1.42.72-1.93,0-1.2-1.72-3-3.45-.82-5.72a1,1,0,0,0,0-1.62c-1.42-1.26-1.71-3.3-2.91-4.63-2-2.21-.57-2.71,1.21-3.22,3.5-1,4-2,2.73-5.74-.72-2.22,1.65-6.6,3.72-6.23,2.37.44,3.55-1,5.17-2.05,1.17-.76,1.9-2.1,3.71-2.16,2.29-.07-.35-1.68.4-2.5,2.57.55,5.18.94,7.23-1.67.39-.5,1.17-1.26,1.73-.8a4.25,4.25,0,0,1,1.51,2.87c.23,2.76,1.33,3.56,3.81,2.44a9.37,9.37,0,0,1,5.28-1c1.86.24,4.5-3.13,4.89-6.22a15.73,15.73,0,0,1,1.48-4.35A3,3,0,0,1,83,296.26c2,.82,4.22.56,6.31.7,1.51.11,3.73.25,3.79-2.63,0-.58.79-.87,1.4-.95a2.94,2.94,0,0,0,2.88-2.58,1.29,1.29,0,0,1,1.2-1.17c5.46-.55,9-5.18,13.78-7.26a20.51,20.51,0,0,1,3.44-1.63c1.71-.4,3.65-.33,4.51-2.72.49-1.33,2.11-.73,3.25-.81s2.37-.15,1.37-1.94c-.15-.27-.36-.77-.28-.85,3-2.75.24-5.67.28-8.5,0-1.75,0-3.49,2.32-4,1.14-.23,2.88-.53,3.1-2,.19-1.19-1.82-1-2.36-2.34,1-.82,2.07-1.73,3.53-1.71s1.9-.81,1.53-2c-.73-2.29-.26-4.8-1.34-7a49.34,49.34,0,0,1-4.39-16.31,8.72,8.72,0,0,1-.06-1.25c.08-1.71,1.55-3.71-.9-4.88-1.49-.7-1.33-3.6-3.85-3.06-.72.15-1.16-.72-.5-1.53.32-.39.72-1,1.1-1,3.51-.1,6.5-2.57,10-2.4a5.52,5.52,0,0,0,3.38-.91c2.42-1.64,5.53-1.28,7.84-3.22.77-.65,1.7-.15,2.26.77,1.1,1.85,2.78,2,4.59,1.67a3.15,3.15,0,0,1,2.3.22c1.4.83,2.7.79,3.51-.77a3.75,3.75,0,0,0-.75-4.55c-1.31-1.38-4.3-1.7-2.94-4.8.84-1.9.87-3.95,1.78-6a69.38,69.38,0,0,0,4.55-12.42c1-4.45,2.83-8.56,4-13,4.22,1.48,7.44,4.86,11.95,5.23,2.29.18,4.43-.51,6.7-.35,3.82.28,3.83.1,6.39,2.87,2.13-2.21,4.08-4.52,7.64-4.22,1.83.15,3.6-5.69,2.81-8.21-1.31-4.15-1.55-8.53-1.81-12.82-.3-4.75,3-7.89,7.52-8.14,5.08-.29,7.38-3,9.21-8.08a2.6,2.6,0,0,0-.07-2.06c-1.1-2.67.26-4.64,3.07-4.86a9.89,9.89,0,0,1,3.45.67c1.08.3,1.91.59,2.94-.39.8-.76,2.37-1.61,3.14-.41a3.08,3.08,0,0,1,0,3.9c-1.88,2.36.88,3,2,4.15.53.52,1.79.67,1.06,1.66-1.6,2.18.12,2.55,1.36,3.28,1.55.91,3.08,1.85,4.63,2.75,1,.57,1.89,1.11,1.54,2.61a1.68,1.68,0,0,0,.43,1.4c3.26,2.42,6.17,6,10.82,4.51,1.53-.47,2.31-.19,3.07,1.32.9,1.79,2.42,2.28,4.45,2.73a8.75,8.75,0,0,1,6.47,6.88,23.79,23.79,0,0,0,5.75,11.53,9.7,9.7,0,0,1,1.28,10.74,4.45,4.45,0,0,0,0,4.54,3.49,3.49,0,0,1-.58,4.46,20.41,20.41,0,0,0-2.72,4.42c-2.22,4.35,1.34,7.49,2.22,11.19a.6.6,0,0,0,.48.31c4.81-.16,8.91,3.65,13.92,2.67,2.73-.53,5.19,1.95,8.06,1.25,4.45-1.09,8.85-.26,13,1.26,3.94,1.46,7.28,4.19,10.67,6.89,3.81,3,7,8.15,13,6.44,1.42-.41,1.51.49,1.15,1.58-.66,2-.51,3.47,1.86,3.86.92.16,1.07,1.17,1.35,1.9,1.19,3.07,2.71,6.08,3.34,9.28a12.93,12.93,0,0,0,4.08,7c1.52,1.5,3.09,3,3.21,5.39.07,1.61,1.19,1.57,2.12,1.33,8.12-2.11,15.92.7,23.88,1.45,7.16.67,14.28,2.66,21.66.59,8.29-2.33,16.46-.36,24.5,2.18a3.91,3.91,0,0,1,2.63,2.28c1.43,3.49,4.56,4.56,7.47,4.59,3.85,0,6.82,1.86,9.91,3.59,4.77,2.66,9.65,4,15,2.42,1.59-.48,2.76-.28,2.58,1.95-.1,1.21.62,1.55,1.68,1.62,1.71.1,3.56-.57,5.06,1,.35.38.89-.1,1.27-.45,6.58-5.89,14.73-8.65,22.39-12.34,2.8-1.34,6.18-.77,8.84-3,1.13-1,2.79.43,4.27.52,3.35.19,6.56-1.6,9.9-.68,3.78,1.05,7.52-.35,11.29-.05a6.45,6.45,0,0,0,4.92-1.72,9.16,9.16,0,0,1,4.84-2.07,12.2,12.2,0,0,0,8.93-6.53A20.35,20.35,0,0,1,547.52,249c2.19-.74,3.66-2.94,5.57-4.32,1.61-1.15.08-3.83-1.22-5.45-.82-1-1.92-1.79-2.78-2.78-3.36-3.81-1.77-7.9-.44-11.9a23.22,23.22,0,0,1,1.93-4.21c1.95-3.38,7.62-3.91,9.92-.86,1.27,1.68,3,2.26,4.72,3,3.18,1.31,6.65.69,9.89,1.64a1.76,1.76,0,0,0,1.39-.33c4.39-3.51,9.68-6,12-11.85.54-1.33,1.74-1.39,3-1,5.74,1.66,10.61.25,15.29-3.8,2.64-2.29,5-3.74,5.35-8,.26-3,2.82-5.75,5.9-7.3,1.91-1,3.67,0,5.49-.08s3.17-.42,3.42-2.71c.22-1.94.92-3.16,2.77-1.2,1.14,1.19,2.25.49,3.18-.26,2.79-2.25,5.57-4.2,9.38-2.88a3.79,3.79,0,0,0,2.89-.15,2.62,2.62,0,0,1,3.64.46,5,5,0,0,0,4.65,1.22,7.37,7.37,0,0,1,2.34-.1c4.27.62,6.28-2.15,4.74-6.47-1.94-5.4-6.17-9-9.17-13.49-2.39-3.58-6.83-4-8.45-8.38-1-2.78-4.62-2-7.17-2.19-4.22-.33-6.46,2.84-8.52,6-.94,1.4-1.37,1.9-2.72.47-2.83-3-6-4.07-10.21-2.88-2.53.72-5.44-.18-7.1,2.92-.25.47-.93.31-1.33-.05-2.13-1.88-4.14-3.81-4.16-7.11,0-1.28.8-1.66,1.59-1.93,2.28-.79,2.7-2.57,2.27-4.68s.38-3.49,1.17-5.23c2.21-4.81,4-9.8,6.05-14.72,1.21-3,2.49-5.88,3.7-8.83.55-1.35,1.24-1.85,2.37-.67,3.48,3.65,8.73,3,12.58,5.69a1.2,1.2,0,0,0,1.64-.13c3.09-3.31,7.5-4.72,10.54-8.19.87-1,2.73-1,4.13-1.45,4.1-1.37,5.79-3.79,5.7-8.23,0-.38-.09-1-.31-1.1-3.07-1.64-.93-3.61-.17-5.21,3.43-7.2,7.07-14.26,9.59-21.92,1.09-3.32,4.29-5,6.71-7.1s3.85-6.75,2.26-9.54a3.67,3.67,0,0,1-.42-2.91c.32-1.36,1-2.85-.52-4-1.71-1.25-3.43-2.55-5.67-1.28-.72.42-1.63,1.43-2.16,0-.38-1-.6-2.36.47-3.16,3.51-2.63,5.8-6.42,8.54-9.79,1-1.29,2.22-2.22,4.06-1.94a9.8,9.8,0,0,0,6.55-1.41c3-1.81,6.56-1.16,9.52-2.91.35-.2,1,0,1.43.1a13.61,13.61,0,0,0,8.11-.36c5.29-1.8,10-1.33,14.84,2.29,3,2.28,6.26,4.71,10,6,.65.23,1.08.69,1.62-.37.94-1.87,2.49-1.55,4.07-.84,1.9.84,3.13,2.82,5.21,3.33.16,0,.41.32.38.44-.59,2.76,1.38,3.37,3,4.54a2.89,2.89,0,0,1,1.14,3.78c-.46.89.49,1.43,1.12,1.93,2.35,1.84,4,4.07,3.61,7.4a5,5,0,0,0-.13.87c4,1.64,1.34,5.92,3.18,8.69a25.42,25.42,0,0,1,4,12.85c.2,4.56,3.57,7.43,5.13,11.25a11.27,11.27,0,0,1,1.18,6.08c-.23,1.82-.4,4.81,2.47,5.75.82.27,1.53.9,1,1.86-2.34,4.29-.22,7.75,1.84,11.18,1.39,2.33,6.8,3.82,9.29,2.49,2.05-1.09,3.32-.41,5.12,1,2.54,1.93,5.27,4.65,9,2.59.42-.23.9-.31,1,.09.46,2.66,3.12,3.28,4.35,5.4,1.74,3,3.87,6.28,8.27,5.73,1.25-.16,2.72.77,1.73,2.84-1.12,2.34-.16,3.92,1.5,5.63a4.14,4.14,0,0,1,.61,5.49c-1.41,2-1.08,3.6.69,5.1a5.69,5.69,0,0,1,2.06,4c.12,1.36,1,3,2.16,2.26,3.23-1.9,6.3-.11,9.25.27,3.64.48,6.86-1.85,10.41-.83.48.14,1-.54,1.28-1.14,2.28-4.86,5.93-7.21,11.13-6.65a1.92,1.92,0,0,0,1.59-.58c3.63-3.21,8-4.82,12.46-6.11,2.32-.67,2.85.1,2.26,2.48a20.74,20.74,0,0,1-1.57,4.61c-.83,1.65.36,3.11,1.15,4.53a5.34,5.34,0,0,1-2.61,7.64c-2.79.95-4.53,2.54-3.57,5.91a1.61,1.61,0,0,1-.6,1.84,6.08,6.08,0,0,0-1.39,3.36c-.48,2.86-.23,5.94-2.27,8.38a2.35,2.35,0,0,0-.22,2c.5,1.87.78,3.82-1.39,5a1.47,1.47,0,0,0-.77,1.82c0,.1.1.22.06.29-1.7,3.52-2.81,7.62-5.29,10.37a9.88,9.88,0,0,0-2.92,7.59c.14,2.51-.92,3.11-2.73,2.44-4.13-1.54-8.52-2.22-12.35-4.85-2.19-1.5-3.58,1.6-3.93,2.78-1,3.38-3.61,3.91-6,4.49-3.28.78-3.44,1.55-2.39,4.91,1.51,4.83,3.25,9.73,2.39,15.07-.55,3.48-1.17,6.92.27,10.5.73,1.82-.72,4-1.23,5.95-.77,2.91-2.08,5.38-5.66,4.69-.25-.05-.54.24-.82.32-1.48.4-3.14,1.08-3.61,2.44-.63,1.79,2.16.95,2.4,2.45-2.49,0-3.82-1.09-3.87-3.77s-1.35-3.62-3.55-4c-1.72-.32-2.61.35-2.93,2.11-.39,2.14-1,4.24-1.25,6.38s-1.54,2.72-3.06,2.3a2.85,2.85,0,0,0-3.82,2c-1.4,5.79-5.67,5.77-9.94,6a9.29,9.29,0,0,0-1.18,0c-1.48.26-3.63-1-4.31.82s.07,3.91,1,5.62c.77,1.36,2.25,2.28,1,4.32s-2.64.19-3.93.37c-2,.28-3.9-.4-5.82-.49a5.27,5.27,0,0,1-4.85-3.37c-.7-1.45-1.46-3.25-3.08-2.7-1.84.62-4,1.47-4.75,3.72-1.18,3.71-3.6,6.46-5.62,9.59-2.61,4.05-6.78,5.46-10.13,7.6a115.38,115.38,0,0,0-11.08,7.91,19,19,0,0,0-5.78,9c-2.69-.69-5.26-1.21-8,.23s-6.22,2.19-9.17,3.66c-3.94,2-8,3.85-10.26,8.3-.82,1.57-2.27,3.59-4.77,2.31a.57.57,0,0,0-.81.59c.63,3.17-1.92,2.5-3.34,3a13.46,13.46,0,0,0-2.51.84,1,1,0,0,1-1.66-.56c-.34-.78-.68-2.17-.07-2.21,1.77-.15,2.32-2.36,4.27-2.25,1.39.07,3.79.11,2.23-2.89-.57-1.1.79-1.57,1.5-2.76-1.71.47-2.65-1.09-4.28-.4-.9.39-1.25-.78-1.58-1.93-.42-1.49-.17-2.2,1-2.63s2.27-.51,1.72-2.58c-.36-1.37,1.43-2.11,2.5-2.73,4.1-2.39,5.68-6.9,7.88-10.75.7-1.23-1.49-3.06-2.62-4.42-.89-1.07-2.44-1.36-2.91-3-.33-1.13-.65-.06-.9.16-1.28,1.17-2.57.71-3.84,0-2.93-1.54-5.13-.74-7,2.07-2.13,3.31-5.34,5.82-6.58,9.83-.12.4-1,.51-1.53.78-4.27,2.24-8.65,4.26-12.44,7.41a6,6,0,0,0-2.07,4.28c-.44,4.39-3,7-7.33,7.49-1,.09-2.06-.3-2.86.48-2.27,2.19-4,2-5.63-.91-.73-1.29-4.16.4-4.86,2.37-.31.86-.44,1.81-.81,2.64A9.56,9.56,0,0,0,637.7,349c2.28.37,4.45,1.28,6.75,0,.6-.33,1.82-.35,2.19.43,1.3,2.77,3.72,4.69,5.65,8.09-2.74-1.24-4-.7-4.43,1.78-.71,4.42-.09,5.92,3.39,7.32,2.1.84,4.29.36,6.45.33a1.75,1.75,0,0,0,1.72-1.48c-.07-2.73,2-3.21,3.58-4.31,1.27-.87,1.89-2.34,2.67-3.77,1.84-3.34,9-3.16,11,.11.75,1.22,1.39,1.55,2.55,1.36.47-.08.88-.27,1.31.25,2.57,3.06,5.49,3,8.62,1,.3-.19,1-.33,1-.23,1.61,3.09,4.53,1.72,7.16,2.32-1.39,1.59.48,4.32-2.14,5.44-.48.21-.19.88.17,1.33.79,1,.7,1.94-.44,2.54s-2.47,1.94-3.45.65c-1.47-1.94-3-1.81-4.57-.79-3.55,2.38-7.73,3.2-11.36,5.35-.72.43-1.23.53-1.15,1.68.07.95-.12,2.11-1.94,1.56s-1.84,1.25-1.75,2.66c.12,1.88-2.89,4.32-4.43,3.59a1.07,1.07,0,0,1-.55-1c-.07-.51,1-1.49-.4-1.46-.62,0-1.48-.11-1.85.68a1.91,1.91,0,0,0,.53,2,8.84,8.84,0,0,0,1.73,1.25c-3.83,1.32-4.48,6-8.45,7.29-1.35.45-2.3,3.77-3.51,5.74-.67,1.1-.87,2.4-2.17,3.14s-.72,2.44-.73,3.71c0,1.48,1,1.18,1.93,1a.9.9,0,0,1,.81.26c2.29,4.43,7.09,4.7,10.58,7.13a5.84,5.84,0,0,1,1.92,3.43c1.9,6.7,4,13.29,7.56,19.25a3.61,3.61,0,0,1,.17,3c-1,2.49.35,3.63,2.06,4.73,1.5,1,4.18,1.95,4.22,3,.13,3.94,2.86,4.71,5.24,6.24a4.66,4.66,0,0,1,1.88,4.63c-.38,2-2.28-.37-3.31.69.85,1.14,2.36.89,3.34,1.73.5.44,1.38.77,1,1.64s-1.4.86-2.1.63c-2.64-.85-5.41-1.72-7.29-3.89s-5.55-1.88-6.57-5.33c0,2.2.63,3.74,2.78,4.22s3.4,2.76,5,4.22a10.64,10.64,0,0,0,4.5,2.72h0c1.07,1.85,2.23,3.65,3.19,5.56.78,1.56.39,2.7-1.52,2.54-4.43-.37-7.3,3.23-11,4.74-.72.3-.57,1.23-.81,1.89-.72,2-1.73,3.38-4,.95,1.29,3.26,3.33,3.9,5.43,1.81s4.21-1.72,5.38.19c2.15,3.52,4.79,5.73,9.75,6-2.46,1.37-3.93,2.34-5.06,4.22,2.46.15,2.36,1.75,2,3.47,0,.2-.17.38-.2.59-.26,1.52-3.2,3.61-4.57,3.11-.56-.2-.88-.33-1.14.3s0,.66.43.92c2.58,1.64,2,4.18.77,6s-.91,3.08-.17,4.77c.94,2.11.83,2.13-1.37,2.52-1.45.26-1,2.67-2.85,2.77-.7,0-1.15,2.41-2.22.16-.32-.66-.88.13-1.11.47-1.74,2.59-3.39,5.26-5.17,7.82-.8,1.15.79,2.18-.52,3.78-2.24,2.72-4,5.82-7,7.82-.19.13-.4.57-.33.71,2.24,4.3-1.56,3.91-3.47,5,.07-1.48-.57-2.27-2.33-2.27,1.19.55,2.2,1,2.33,2.26-.21,1.3.49,2.12,1.67,3-2.8.88-5.19,1.72-3.76,5.68.34.94.27,3.75-1.79,4.74-.81.39-.6,1,0,1.38,1.14.78,1.2,2,1.53,3.49-2-.09-3.32-2.71-5.47-1.4-.37.23-1,.13-1.2.67-.26.86.46,1,1,1.17s1.45.51,1.27,1.41c-.25,1.31-1.82,1-2.49,2-.3.44-1,0-1.1-.52-.13-.85-.35-1.38-1.28-1.07.87,1.23-1.66,1.68-.58,3s1.55,2.39-.91,2.74c-2,.29-1.6,2.73-2.4,4.13-.59,1-.68,1.36-1.87.64-2.67-1.63-5.42.57-5.68,3.85-.16,2.12-2.49,3.07-3.66,4.74-.89,1.27-2.46,2-2.87,3.62-1-.35-.34-1.55-1.33-1.76a2.06,2.06,0,0,0-.42.62c-.24,1,.63,2.06-.39,2.91a9.2,9.2,0,0,0-.81.84c-1.17-3-2.43.35-3.54,0-2.71-1-3.46.43-4.16,2.87-.42,1.46-.65,3.58-2.88,3.86-.88.12-.71,1.12-.77,1.82-.09.93-.49,1.68-1.41,1.71-2.73.09-5,1.62-7.4,2.62-1.23.52-1.72.13-2.37-.82-.94-1.39-2.13-.53-2.13.43,0,3.17-2.08,1.85-2.83,1.27-2.23-1.7-3.79-1-5.39.84-1.1,1.24-2.31,2.34-3.3-.12-.24-.6,0-1.71-1.1-1.26-.63.25-.84.91-1.08,1.66-.31.92,1.52,1.87-.17,2.6s-1.06-1.07-1.66-1.51a.91.91,0,0,0-1.08-.1A.74.74,0,0,0,585,608c1.91,1.63.31,2.94-.56,3.81s-2.88,2.68-2.31-1.35a20.34,20.34,0,0,1-2.08,1.86,1.1,1.1,0,0,1-1.09-.12c-.62-.63,0-.81.46-1,.94-.42.2-.85.12-1.4-.25-1.74-1.48-2.9-2.12-4.39-.35-.8-1-1.61-1.79-1.22-1.06.52.35,1.24.18,1.75-.84,2.45-.77,5-1,7.54-.06.65-.58.79-1.09.44-1-.71-1.54-1.28-1.57.85,0,.92-2.42.7-3.35.08s-.91-.48-1,.5c-.25,1.88-.79,3.37-3,1.67-.42-.32-.93.06-1.34.38-2.58,2-5.2,3.21-8.47,1.48-.81-.43-2.47-.19-1.87,1.9.44,1.49-1.38,1.56-1.46,1.35-1.07-3-2,0-2.29.28-1.67,1.26-3.56.33-5.3.9-1.23.41-2.62.6-3.94.91a7.53,7.53,0,0,0-6.15,6.25c-.45,2.08-2,.22-2.93.7-.67.32-1.92-.93-2.14.62-.15,1,.88,1.12,1.66,1.34s3.33,4.53,3.33,5.68c0,1.47-1.1,2.13-2,2.86-1.91,1.49-4.09.83-5.92.13-1.33-.5-1-2.7-1.79-4.07-3-5.3-2.52-9.61,1.12-13.48-2.87-2.48-5.64-.17-8.44.18-1.23.16-3.47,2-2.14-1.66.39-1.1-.83-.77-1.41-.94-2.34-.67-5.47,0-5.81-4,0-.09-.49-.2-.75-.19s-.37.24-.39.39c-.14,1.18,1.37,2,.43,3.47s-2.27-.46-2.73.24C503.08,623.18,501.93,622.33,500.86,622.45Z" transform="translate(-35 -33)" />
    </g>
    <g id="distribution">
        <path id="_162" data-name="162" class="cls-1" d="M658.21,588.68l.39.06.59.52.17.59.62.74.77.14.67.39-.1.68.34.34.45.08-.83.63-.48.12-.51.68-.19,1.23v1.26l.17.59-.56.6.27.39-.32-.05-.48.54-.26,1.22-.35.08,0,.2-.89.61,0,.57-.53.4-.09.54.17.24v.35l-.42.14s-2.32,6.66-2.3,6.59-.34,0-.34,0l-.11.69-.35.14v.91l-.45.34-1.47,2.12h-.46l-.1.62-1,.87-.78.29-.17.66-.45.35-1.07,2.12-.16,1-.26,1.21.11.16-.16.18-.08.48.1.23-.58.31-.08.48.09.3-.6-.46-.3-.19-.17.25-.26,0,.1-.62-.19-.52.3-1.07-.26-1.3-.21-1.16-.82-.7-.67-.81-.81-.77v-.49l-.48-.78.1-.62-.33-2.15-.07-.85-1-1.08.06-.34.25-.37.13-.4.28-.51.42-1,.56-.6,0-.57.19-.38-.32-.06,0-.28.26-.38.57-1.51.08-.54-.09-.23.77-.28.62-.52.29-.58,1.05-1.22.07-.41,1-.73-.22-.32,1.61-1.75,1.41-1.78.13,0,.33-.43,1.33-.82-.15-.31.51-.68.37-.28.06-.34.5-.26.08-.48,1-.6.59,0,.78-.28.71.12.92-.33v-.35l.34-.5Z" transform="translate(-35 -33)" />
        <path id="_161" data-name="161" class="cls-1" d="M521.62,650.06c1.31-1.84,3.51-.21,5.25-1a5.31,5.31,0,0,1,3-.48c.22,0,.56.15.65.05.94-1.18,1.45-.33,2.33.23A3,3,0,0,1,534.3,651a1.46,1.46,0,0,1-.62,1.81c-2.16,1.5-2.88,3.85-3.18,6.38-.11.95-.45,1.66-1.39,1.76a1.75,1.75,0,0,0-1.49.83c-.55,1-1,2-2.39,1.67-.1,0-.29,0-.32.12-1,2.63-2.6,1-4.13.8a9.93,9.93,0,0,1-4.74-2.06c-.69-.52-.53-2.25-.78-3.42-.66-3.13,1-4.94,3.29-6.37.62-.39,1.05-.6,1-1.6S520.41,649.75,521.62,650.06Z" transform="translate(-35 -33)" />
        <path id="_159" data-name="159" class="cls-2" d="M328.17,397.94a.87.87,0,1,1-.87-.91.89.89,0,0,1,.87.91" transform="translate(-35 -33)" />
        <path id="_158" data-name="158" class="cls-2" d="M705.51,303.82a.87.87,0,1,1-.86-.91.89.89,0,0,1,.86.91" transform="translate(-35 -33)" />
        <path id="_157" data-name="157" class="cls-2" d="M679.07,519.47c0,9.38-7.23,17-16.16,17s-16.16-7.6-16.16-17,7.24-17,16.16-17,16.16,7.6,16.16,17" transform="translate(-35 -33)" />
        <path id="_156" data-name="156" class="cls-2" d="M417.67,586.63a6.48,6.48,0,1,1-6.47-6.8,6.64,6.64,0,0,1,6.47,6.8" transform="translate(-35 -33)" />
        <path id="_155" data-name="155" class="cls-2" d="M203.17,285.5c0,6.41-4.95,11.61-11,11.61s-11.05-5.2-11.05-11.61,5-11.61,11.05-11.61,11,5.2,11,11.61" transform="translate(-35 -33)" />
        <path id="_154" data-name="154" class="cls-2" d="M248,468.76a4.64,4.64,0,1,1-4.63-4.88,4.75,4.75,0,0,1,4.63,4.88" transform="translate(-35 -33)" />
        <path id="_153" data-name="153" class="cls-2" d="M633.28,339.92a9.07,9.07,0,1,1-9.06-9.52,9.3,9.3,0,0,1,9.06,9.52" transform="translate(-35 -33)" />
        <path id="_152" data-name="152" class="cls-2" d="M432.36,494.34c0,8.24-6.36,14.92-14.2,14.92S404,502.58,404,494.34s6.36-14.92,14.2-14.92,14.2,6.68,14.2,14.92" transform="translate(-35 -33)" />
        <path id="_151" data-name="151" class="cls-2" d="M569.63,380.12c0,10.71-8.26,19.39-18.44,19.39s-18.45-8.68-18.45-19.39,8.26-19.39,18.45-19.39,18.44,8.68,18.44,19.39" transform="translate(-35 -33)" />
        <path id="_150" data-name="150" class="cls-2" d="M704.3,482.46c0,12.17-9.38,22-21,22s-21-9.86-21-22,9.38-22,21-22,21,9.86,21,22" transform="translate(-35 -33)" />
        <path id="_149" data-name="149" class="cls-2" d="M657.31,398.4a7.88,7.88,0,1,1-7.88-8.28,8.08,8.08,0,0,1,7.88,8.28" transform="translate(-35 -33)" />
        <path id="_148" data-name="148" class="cls-2" d="M477.39,379.67a10.12,10.12,0,1,1-10.11-10.62,10.37,10.37,0,0,1,10.11,10.62" transform="translate(-35 -33)" />
        <path id="_147" data-name="147" class="cls-2" d="M754.69,264.08a7.88,7.88,0,1,1-7.88-8.28,8.08,8.08,0,0,1,7.88,8.28" transform="translate(-35 -33)" />
        <path id="_146" data-name="146" class="cls-2" d="M613.3,537.29a6.48,6.48,0,1,1-6.47-6.8,6.64,6.64,0,0,1,6.47,6.8" transform="translate(-35 -33)" />
        <path id="_145" data-name="145" class="cls-2" d="M678.45,450.94c0,9-7,16.32-15.54,16.32s-15.53-7.31-15.53-16.32,7-16.33,15.53-16.33,15.54,7.31,15.54,16.33" transform="translate(-35 -33)" />
        <path id="_144" data-name="144" class="cls-2" d="M557.65,537.29a6.47,6.47,0,1,1-6.46-6.8,6.63,6.63,0,0,1,6.46,6.8" transform="translate(-35 -33)" />
        <path id="_143" data-name="143" class="cls-2" d="M557.65,486.12a6.47,6.47,0,1,1-6.46-6.8,6.63,6.63,0,0,1,6.46,6.8" transform="translate(-35 -33)" />
        <path id="_142" data-name="142" class="cls-2" d="M586.88,434a7.88,7.88,0,1,1-7.87-8.27,8.08,8.08,0,0,1,7.87,8.27" transform="translate(-35 -33)" />
        <path id="_141" data-name="141" class="cls-2" d="M783.38,159.91a7.88,7.88,0,1,1-7.87-8.28,8.09,8.09,0,0,1,7.87,8.28" transform="translate(-35 -33)" />
        <path id="_140" data-name="140" class="cls-2" d="M627.82,342.2c0,12.44-9.59,22.52-21.42,22.52S585,354.64,585,342.2s9.59-22.51,21.43-22.51,21.42,10.08,21.42,22.51" transform="translate(-35 -33)" />
        <path id="_139" data-name="139" class="cls-2" d="M491.3,553.28a10.12,10.12,0,1,1-10.11-10.62,10.38,10.38,0,0,1,10.11,10.62" transform="translate(-35 -33)" />
        <path id="_138" data-name="138" class="cls-2" d="M580.2,618.15c0,9-7,16.33-15.54,16.33s-15.53-7.31-15.53-16.33,7-16.32,15.53-16.32,15.54,7.31,15.54,16.32" transform="translate(-35 -33)" />
        <path id="_137" data-name="137" class="cls-2" d="M419.08,360.93a7.88,7.88,0,1,1-7.88-8.27,8.09,8.09,0,0,1,7.88,8.27" transform="translate(-35 -33)" />
        <path id="_136" data-name="136" class="cls-2" d="M639.38,561a6.47,6.47,0,1,1-6.47-6.79,6.63,6.63,0,0,1,6.47,6.79" transform="translate(-35 -33)" />
        <path id="_135" data-name="135" class="cls-2" d="M498.53,498.91a6.48,6.48,0,1,1-6.47-6.8,6.64,6.64,0,0,1,6.47,6.8" transform="translate(-35 -33)" />
        <path id="_134" data-name="134" class="cls-2" d="M624.32,318.44a10.11,10.11,0,1,1-10.1-10.61,10.37,10.37,0,0,1,10.1,10.61" transform="translate(-35 -33)" />
        <path id="_133" data-name="133" class="cls-2" d="M622.05,468.3a.87.87,0,1,1-.87-.92.89.89,0,0,1,.87.92" transform="translate(-35 -33)" />
        <path id="_130" data-name="130" class="cls-3" d="M676.12,522.35c0,7.36-5.68,13.33-12.69,13.33s-12.68-6-12.68-13.33S656.43,509,663.43,509s12.69,6,12.69,13.33" transform="translate(-35 -33)" />
        <path id="_129" data-name="129" class="cls-3" d="M412.36,589a.87.87,0,1,1-.87-.91.89.89,0,0,1,.87.91" transform="translate(-35 -33)" />
        <path id="_128" data-name="128" class="cls-3" d="M199.55,289a6.1,6.1,0,1,1-6.09-6.4,6.24,6.24,0,0,1,6.09,6.4" transform="translate(-35 -33)" />
        <path id="_127" data-name="127" class="cls-3" d="M244.69,471.22a.87.87,0,1,1-.87-.91.89.89,0,0,1,.87.91" transform="translate(-35 -33)" />
        <path id="_126" data-name="126" class="cls-3" d="M630.87,342.94a6.1,6.1,0,1,1-6.1-6.4,6.26,6.26,0,0,1,6.1,6.4" transform="translate(-35 -33)" />
        <path id="_125" data-name="125" class="cls-3" d="M427,496.78a8.54,8.54,0,1,1-8.53-9,8.75,8.75,0,0,1,8.53,9" transform="translate(-35 -33)" />
        <path id="_124" data-name="124" class="cls-3" d="M557.89,383.11a6.1,6.1,0,1,1-6.09-6.4,6.25,6.25,0,0,1,6.09,6.4" transform="translate(-35 -33)" />
        <path id="_123" data-name="123" class="cls-3" d="M700.69,485.37c0,9.77-7.54,17.7-16.84,17.7S667,495.14,667,485.37s7.54-17.7,16.84-17.7,16.84,7.93,16.84,17.7" transform="translate(-35 -33)" />
        <path id="_122" data-name="122" class="cls-3" d="M654.34,401.37a4.38,4.38,0,1,1-4.37-4.59,4.49,4.49,0,0,1,4.37,4.59" transform="translate(-35 -33)" />
        <path id="_121" data-name="121" class="cls-3" d="M332.89,401.37a4.38,4.38,0,1,1-4.37-4.59,4.49,4.49,0,0,1,4.37,4.59" transform="translate(-35 -33)" />
        <path id="_120" data-name="120" class="cls-3" d="M472.77,383.11a4.38,4.38,0,1,1-4.37-4.59,4.48,4.48,0,0,1,4.37,4.59" transform="translate(-35 -33)" />
        <path id="_119" data-name="119" class="cls-3" d="M713.66,306.87a8.54,8.54,0,1,1-8.52-9,8.76,8.76,0,0,1,8.52,9" transform="translate(-35 -33)" />
        <path id="_118" data-name="118" class="cls-3" d="M756.7,269.88a6.1,6.1,0,1,1-6.1-6.4,6.26,6.26,0,0,1,6.1,6.4" transform="translate(-35 -33)" />
        <path id="_117" data-name="117" class="cls-3" d="M607.83,539.7a.87.87,0,1,1-.87-.92.89.89,0,0,1,.87.92" transform="translate(-35 -33)" />
        <path id="_116" data-name="116" class="cls-3" d="M675.4,453.87c0,6.95-5.35,12.58-12,12.58s-12-5.63-12-12.58,5.36-12.58,12-12.58,12,5.63,12,12.58" transform="translate(-35 -33)" />
        <path id="_115" data-name="115" class="cls-3" d="M556.17,540.15a4.38,4.38,0,1,1-4.37-4.59,4.48,4.48,0,0,1,4.37,4.59" transform="translate(-35 -33)" />
        <path id="_114" data-name="114" class="cls-3" d="M562.76,491.07a6.1,6.1,0,1,1-6.09-6.4,6.25,6.25,0,0,1,6.09,6.4" transform="translate(-35 -33)" />
        <path id="_113" data-name="113" class="cls-3" d="M584,437a4.38,4.38,0,1,1-4.37-4.59A4.48,4.48,0,0,1,584,437" transform="translate(-35 -33)" />
        <path id="_112" data-name="112" class="cls-3" d="M782.83,165.88a7.42,7.42,0,1,1-7.41-7.79,7.61,7.61,0,0,1,7.41,7.79" transform="translate(-35 -33)" />
        <path id="_111" data-name="111" class="cls-3" d="M615.49,345.22a8.54,8.54,0,1,1-8.53-9,8.75,8.75,0,0,1,8.53,9" transform="translate(-35 -33)" />
        <path id="_110" data-name="110" class="cls-3" d="M491.51,558.76a10.41,10.41,0,1,1-10.4-10.93,10.67,10.67,0,0,1,10.4,10.93" transform="translate(-35 -33)" />
        <path id="_109" data-name="109" class="cls-3" d="M510.53,604.52a.87.87,0,1,1-.87-.91.89.89,0,0,1,.87.91" transform="translate(-35 -33)" />
        <path id="_108" data-name="108" class="cls-3" d="M586.67,621c0,12.43-9.58,22.5-21.41,22.5s-21.4-10.07-21.4-22.5,9.58-22.49,21.4-22.49,21.41,10.07,21.41,22.49" transform="translate(-35 -33)" />
        <path id="_107" data-name="107" class="cls-3" d="M420,363.48a8.54,8.54,0,1,1-8.53-9,8.75,8.75,0,0,1,8.53,9" transform="translate(-35 -33)" />
        <path id="_106" data-name="106" class="cls-3" d="M637.83,563.89a4.38,4.38,0,1,1-4.37-4.59,4.48,4.48,0,0,1,4.37,4.59" transform="translate(-35 -33)" />
        <path id="_105" data-name="105" class="cls-3" d="M498.37,504.74a6.1,6.1,0,1,1-6.09-6.4,6.25,6.25,0,0,1,6.09,6.4" transform="translate(-35 -33)" />
        <path id="_104" data-name="104" class="cls-3" d="M630.31,311c0,8.48-6.54,15.35-14.61,15.35s-14.61-6.87-14.61-15.35,6.54-15.36,14.61-15.36,14.61,6.87,14.61,15.36" transform="translate(-35 -33)" />
        <path id="_103" data-name="103" class="cls-2" d="M533,318.5a12.84,12.84,0,0,1-4.14,17.1,11.55,11.55,0,0,1-16.27-4.36,12.83,12.83,0,0,1,4.14-17.09A11.56,11.56,0,0,1,533,318.5" transform="translate(-35 -33)" />
        <path id="_102" data-name="102" class="cls-3" d="M529.09,312.48a13.76,13.76,0,0,1-4.44,18.33,12.39,12.39,0,0,1-17.44-4.67,13.76,13.76,0,0,1,4.44-18.33,12.39,12.39,0,0,1,17.44,4.67" transform="translate(-35 -33)" />
        <path id="_101" data-name="101" class="cls-3" d="M626.54,471.68a4.38,4.38,0,1,1-4.37-4.6,4.49,4.49,0,0,1,4.37,4.6" transform="translate(-35 -33)" />
        <path id="_100" data-name="100" class="cls-2" d="M528.59,653.36a2.9,2.9,0,1,1-2.9-3.05,3,3,0,0,1,2.9,3.05" transform="translate(-35 -33)" />
    </g>
    <g id="distribution-text"><text class="cls-4" transform="translate(642.34 482.96) scale(0.95 1)">38</text><text class="cls-4" transform="translate(524.18 623.56) scale(0.95 1)">38</text><text class="cls-4" transform="translate(595.42 548.7) scale(0.95 1)">3</text><text class="cls-4" transform="translate(372.88 353.31) scale(0.95 1)">4</text><text class="cls-4" transform="translate(573.94 258.81) scale(0.95 1)">17</text><text class="cls-4" transform="translate(452.19 280.57) scale(0.95 1)">18</text><text class="cls-4" transform="translate(453.81 488.43) scale(0.95 1)">4</text><text class="cls-4" transform="translate(471.19 586.13) scale(0.95 1)">0</text><text class="cls-4" transform="translate(440.35 547.78) scale(0.95 1)">11</text><text class="cls-4" transform="translate(566.32 343.54) scale(0.95 1)">27</text><text class="cls-4" transform="translate(540.55 421.79) scale(0.95 1)">4</text><text class="cls-4" transform="translate(513.76 475.65) scale(0.95 1)">4</text><text class="cls-4" transform="translate(513.76 524.96) scale(0.95 1)">3</text><text class="cls-4" transform="translate(620.92 447.35) scale(0.95 1)">20</text><text class="cls-4" transform="translate(569.36 521.31) scale(0.95 1)">2</text><text class="cls-4" transform="translate(709.23 253.79) scale(0.95 1)">5</text><text class="cls-4" transform="translate(667.53 296.7) scale(0.95 1)">4</text><text class="cls-4" transform="translate(429.49 367.92) scale(0.95 1)">6</text><text class="cls-4" transform="translate(289.61 386.18) scale(0.95 1)">1</text><text class="cls-4" transform="translate(611.06 386.18) scale(0.95 1)">4</text><text class="cls-4" transform="translate(583.26 456.48) scale(0.95 1)">1</text><text class="cls-4" transform="translate(510.73 376.11) scale(0.95 1)">19</text><text class="cls-4" transform="translate(376.29 486.61) scale(0.95 1)">14</text><text class="cls-4" transform="translate(585.86 329.57) scale(0.95 1)">6</text><text class="cls-4" transform="translate(206.21 452.83) scale(0.95 1)">1</text><text class="cls-4" transform="translate(154.55 275.66) scale(0.95 1)">8</text><text class="cls-4" transform="translate(373.89 570.61) scale(0.95 1)">2</text><text class="cls-4" transform="translate(624.96 516.74) scale(0.95 1)">9</text><text class="cls-4" transform="translate(486.85 634.44) scale(0.95 1)">1</text><text class="cls-4" transform="translate(737.03 150.62) scale(0.95 1)">6</text></g>
    <g id="demand">
        <path id="_31" data-name="31" class="cls-1" d="M658.39,595.29l.39.07.58.52.18.59.61.74.78.14.67.4-.1.68.34.34.46.08-.83.63-.49.12-.51.69-.19,1.23v1.26l.17.6-.56.6.27.4-.32-.06-.49.55-.26,1.22-.34.08,0,.21-.89.61,0,.57-.53.4-.08.55.16.24v.35l-.42.14s-2.32,6.69-2.31,6.62-.34,0-.34,0l-.1.69-.36.15v.91l-.45.34L652,620.09h-.47l-.09.62-1,.88-.78.28-.17.67-.45.35L647.92,625l-.16,1-.26,1.21.11.16-.17.19-.07.48.1.22-.59.32-.07.48.08.3-.59-.46-.3-.19-.18.25-.26,0,.1-.62-.18-.52.3-1.08-.26-1.31-.22-1.16-.82-.7-.68-.82L643,622v-.49l-.48-.78.1-.62-.33-2.16-.06-.86-1-1.08.06-.34.26-.38.13-.4.28-.51.42-1,.56-.6,0-.57.19-.39-.32-.06,0-.28.26-.38.57-1.52.09-.54-.1-.23.78-.29L645,608l.29-.58,1.06-1.22.06-.41,1-.75-.22-.31,1.61-1.76,1.41-1.79.13,0,.34-.43,1.33-.83-.15-.3.5-.69.38-.28.06-.34.5-.27.08-.48,1-.6.6,0,.78-.28.71.12.92-.33v-.35l.34-.51Z" transform="translate(-35 -33)" />
        <path id="_30" data-name="30" class="cls-1" d="M521.46,657c1.32-1.86,3.53-.22,5.27-1.06a5.39,5.39,0,0,1,3-.47c.22,0,.57.15.65,0,.95-1.19,1.46-.33,2.34.24a3,3,0,0,1,1.47,2.21,1.45,1.45,0,0,1-.62,1.82c-2.17,1.52-2.88,3.87-3.18,6.41-.11,1-.46,1.67-1.4,1.77a1.79,1.79,0,0,0-1.49.84c-.55,1-1,2-2.4,1.68a.36.36,0,0,0-.32.11c-1,2.65-2.6,1-4.13.81a10.07,10.07,0,0,1-4.76-2.07c-.69-.53-.53-2.26-.78-3.44-.66-3.14,1-5,3.3-6.39.62-.4,1.05-.61,1-1.62S520.25,656.65,521.46,657Z" transform="translate(-35 -33)" />
        <path id="_29" data-name="29" class="cls-5" d="M782.75,179.82c0,8.1-6.25,14.66-14,14.66s-14-6.56-14-14.66,6.25-14.66,14-14.66,14,6.56,14,14.66" transform="translate(-35 -33)" />
        <path id="_28" data-name="28" class="cls-5" d="M681.38,524.53c0,11.39-8.79,20.62-19.64,20.62s-19.64-9.23-19.64-20.62,8.79-20.63,19.64-20.63,19.64,9.23,19.64,20.63" transform="translate(-35 -33)" />
        <path id="_27" data-name="27" class="cls-5" d="M435.33,588.16c0,8.22-6.34,14.88-14.17,14.88S407,596.38,407,588.16s6.35-14.89,14.18-14.89,14.17,6.66,14.17,14.89" transform="translate(-35 -33)" />
        <path id="_26" data-name="26" class="cls-5" d="M211.13,288.54c0,6.81-5.25,12.32-11.73,12.32s-11.73-5.51-11.73-12.32,5.25-12.32,11.73-12.32,11.73,5.52,11.73,12.32" transform="translate(-35 -33)" />
        <path id="_25" data-name="25" class="cls-5" d="M265.14,475.72a4,4,0,1,1-4-4.17,4.08,4.08,0,0,1,4,4.17" transform="translate(-35 -33)" />
        <path id="_24" data-name="24" class="cls-5" d="M447.11,499.82c0,11.3-8.72,20.46-19.48,20.46s-19.49-9.16-19.49-20.46,8.73-20.47,19.49-20.47,19.48,9.16,19.48,20.47" transform="translate(-35 -33)" />
        <path id="_23" data-name="23" class="cls-5" d="M570,390.47c0,8.53-6.58,15.44-14.7,15.44s-14.7-6.91-14.7-15.44S547.15,375,555.27,375,570,382,570,390.47" transform="translate(-35 -33)" />
        <path id="_22" data-name="22" class="cls-5" d="M694.35,487.46c0,8-6.17,14.49-13.79,14.49s-13.79-6.49-13.79-14.49S672.94,473,680.56,473s13.79,6.48,13.79,14.48" transform="translate(-35 -33)" />
        <path id="_21" data-name="21" class="cls-5" d="M671.14,407.15c0,13.64-10.53,24.7-23.52,24.7s-23.51-11.06-23.51-24.7,10.52-24.69,23.51-24.69,23.52,11.05,23.52,24.69" transform="translate(-35 -33)" />
        <path id="_20" data-name="20" class="cls-5" d="M529.81,407.77c0,8.43-6.51,15.26-14.54,15.26s-14.53-6.83-14.53-15.26,6.51-15.26,14.53-15.26,14.54,6.83,14.54,15.26" transform="translate(-35 -33)" />
        <path id="_19" data-name="19" class="cls-5" d="M346.4,407.15a5.84,5.84,0,1,1-5.83-6.12,6,6,0,0,1,5.83,6.12" transform="translate(-35 -33)" />
        <path id="_18" data-name="18" class="cls-5" d="M481.28,390.47a6,6,0,1,1-6-6.3,6.16,6.16,0,0,1,6,6.3" transform="translate(-35 -33)" />
        <path id="_17" data-name="17" class="cls-5" d="M718.8,318.2c0,9.89-7.64,17.91-17.06,17.91s-17.06-8-17.06-17.91,7.63-17.92,17.06-17.92,17.06,8,17.06,17.92" transform="translate(-35 -33)" />
        <path id="_16" data-name="16" class="cls-5" d="M754.53,280.51c0,7.08-5.47,12.82-12.21,12.82s-12.2-5.74-12.2-12.82,5.47-12.81,12.2-12.81,12.21,5.74,12.21,12.81" transform="translate(-35 -33)" />
        <path id="_15" data-name="15" class="cls-5" d="M622.91,541.21c0,8.52-6.58,15.44-14.7,15.44s-14.7-6.92-14.7-15.44,6.58-15.44,14.7-15.44,14.7,6.91,14.7,15.44" transform="translate(-35 -33)" />
        <path id="_14" data-name="14" class="cls-5" d="M683.63,459c0,12.7-9.8,23-21.89,23s-21.89-10.3-21.89-23,9.8-23,21.89-23,21.89,10.3,21.89,23" transform="translate(-35 -33)" />
        <path id="_13" data-name="13" class="cls-5" d="M573.16,541.21c0,10.37-8,18.78-17.89,18.78s-17.89-8.41-17.89-18.78,8-18.79,17.89-18.79,17.89,8.41,17.89,18.79" transform="translate(-35 -33)" />
        <path id="_12" data-name="12" class="cls-5" d="M573.15,493c0,10.37-8,18.77-17.88,18.77S537.4,503.39,537.4,493s8-18.77,17.87-18.77,17.88,8.4,17.88,18.77" transform="translate(-35 -33)" />
        <path id="_11" data-name="11" class="cls-5" d="M602.63,441.75c0,12.12-9.35,21.94-20.89,21.94s-20.89-9.82-20.89-21.94,9.35-21.94,20.89-21.94,20.89,9.82,20.89,21.94" transform="translate(-35 -33)" />
        <ellipse id="_9" data-name="9" class="cls-5" cx="573.21" cy="321.64" rx="21.5" ry="21.53" />
        <path id="_8" data-name="8" class="cls-5" d="M530.57,675.88a7.07,7.07,0,1,1-7.06-7.42,7.25,7.25,0,0,1,7.06,7.42" transform="translate(-35 -33)" />
        <path id="_7" data-name="7" class="cls-5" d="M500.35,556.65c0,7.38-5.7,13.36-12.72,13.36s-12.72-6-12.72-13.36,5.69-13.36,12.72-13.36,12.72,6,12.72,13.36" transform="translate(-35 -33)" />
        <path id="_6" data-name="6" class="cls-5" d="M530.6,603c0,8.89-6.86,16.1-15.33,16.1s-15.33-7.21-15.33-16.1,6.87-16.1,15.33-16.1,15.33,7.21,15.33,16.1" transform="translate(-35 -33)" />
        <path id="_5" data-name="5" class="cls-5" d="M596.82,618.43c0,16.93-13.07,30.65-29.2,30.65s-29.19-13.72-29.19-30.65,13.07-30.66,29.19-30.66,29.2,13.72,29.2,30.66" transform="translate(-35 -33)" />
        <path id="_4" data-name="4" class="cls-5" d="M432,373.18a10.82,10.82,0,1,1-10.81-11.36A11.09,11.09,0,0,1,432,373.18" transform="translate(-35 -33)" />
        <path id="_3" data-name="3" class="cls-5" d="M649.78,563.45c0,9.78-7.55,17.71-16.86,17.71s-16.87-7.93-16.87-17.71,7.55-17.72,16.87-17.72,16.86,7.93,16.86,17.72" transform="translate(-35 -33)" />
        <path id="_2" data-name="2" class="cls-5" d="M628.67,332.4c0,7.77-6,14.07-13.4,14.07s-13.4-6.3-13.4-14.07,6-14.07,13.4-14.07,13.4,6.3,13.4,14.07" transform="translate(-35 -33)" />
        <path id="_1" data-name="1" class="cls-5" d="M639.33,475.72c0,9.86-7.61,17.86-17,17.86s-17-8-17-17.86,7.61-17.85,17-17.85,17,8,17,17.85" transform="translate(-35 -33)" />
    </g>
    <g id="disaster">
        <rect id="_57" data-name="57" class="cls-6" x="620.2" y="477.26" width="15.67" height="16.65" />
        <rect id="_56" data-name="56" class="cls-6" x="371.13" y="541.56" width="16.8" height="17.86" />
        <rect id="_55" data-name="55" class="cls-6" x="149.03" y="236.12" width="6.32" height="6.71" />
        <rect id="_54" data-name="54" class="cls-6" x="210.35" y="428.52" width="10.66" height="11.33" />
        <rect id="_53" data-name="53" class="cls-6" x="380.88" y="452.97" width="11.8" height="12.55" />
        <rect id="_52" data-name="52" class="cls-6" x="516.3" y="343.71" width="2.17" height="2.3" />
        <rect id="_51" data-name="51" class="cls-6" x="645.69" y="445.24" width="2.17" height="2.3" />
        <rect id="_50" data-name="50" class="cls-6" x="612.11" y="362" width="2.82" height="3" />
        <rect id="_49" data-name="49" class="cls-6" x="474.25" y="360.71" width="5.26" height="5.59" />
        <rect id="_48" data-name="48" class="cls-6" x="296.11" y="361.59" width="3.59" height="3.82" />
        <rect id="_47" data-name="47" class="cls-6" x="434.07" y="343.71" width="2.17" height="2.3" />
        <rect id="_46" data-name="46" class="cls-6" x="667.44" y="269.15" width="2.22" height="2.36" />
        <rect id="_45" data-name="45" class="cls-6" x="708.75" y="229.52" width="3.03" height="3.22" />
        <rect id="_44" data-name="44" class="cls-6" x="564.71" y="494.12" width="15.39" height="16.36" />
        <rect id="_43" data-name="43" class="cls-6" x="625.21" y="414.48" width="4.43" height="4.71" />
        <rect id="_42" data-name="42" class="cls-6" x="491.17" y="473.79" width="52.43" height="55.72" />
        <rect id="_41" data-name="41" class="cls-6" x="500.81" y="433.92" width="33.15" height="35.23" />
        <rect id="_40" data-name="40" class="cls-6" x="542.11" y="395.55" width="7.39" height="7.86" />
        <rect id="_39" data-name="39" class="cls-6" x="736.39" y="125.24" width="2.17" height="2.3" />
        <rect id="_38" data-name="38" class="cls-6" x="569.66" y="305.31" width="4.29" height="4.56" />
        <rect id="_37" data-name="37" class="cls-6" x="486.63" y="624.56" width="2.22" height="2.36" />
        <rect id="_36" data-name="36" class="cls-6" x="445.43" y="515.14" width="7.27" height="7.72" />
        <rect id="_35" data-name="35" class="cls-6" x="471.58" y="560.92" width="10.6" height="11.26" />
        <rect id="_34" data-name="34" class="cls-6" x="524.97" y="576.54" width="11.43" height="12.15" />
        <rect id="_33" data-name="33" class="cls-6" x="377.25" y="324.44" width="4.57" height="4.86" />
        <rect id="_32" data-name="32" class="cls-6" x="582.93" y="509.62" width="28.54" height="30.33" />
        <rect id="_31-2" data-name="31" class="cls-6" x="575.85" y="281.05" width="6.41" height="6.82" />
        <rect id="_30-2" data-name="30" class="cls-6" x="575.77" y="422.34" width="21.08" height="22.4" />
        <rect id="_29-2" data-name="29" class="cls-6" x="620.2" y="477.26" width="15.67" height="16.65" />
        <rect id="_28-2" data-name="28" class="cls-6" x="371.13" y="541.56" width="16.8" height="17.86" />
        <rect id="_27-2" data-name="27" class="cls-6" x="149.03" y="236.12" width="6.32" height="6.71" />
        <rect id="_26-2" data-name="26" class="cls-6" x="210.35" y="428.52" width="10.66" height="11.33" />
        <rect id="_25-2" data-name="25" class="cls-6" x="380.88" y="452.97" width="11.8" height="12.55" />
        <rect id="_24-2" data-name="24" class="cls-6" x="516.3" y="343.71" width="2.17" height="2.3" />
        <rect id="_23-2" data-name="23" class="cls-6" x="645.69" y="445.24" width="2.17" height="2.3" />
        <rect id="_22-2" data-name="22" class="cls-6" x="612.11" y="362" width="2.82" height="3" />
        <rect id="_21-2" data-name="21" class="cls-6" x="474.25" y="360.71" width="5.26" height="5.59" />
        <rect id="_20-2" data-name="20" class="cls-6" x="296.11" y="361.59" width="3.59" height="3.82" />
        <rect id="_19-2" data-name="19" class="cls-6" x="434.07" y="343.71" width="2.17" height="2.3" />
        <rect id="_18-2" data-name="18" class="cls-6" x="667.44" y="269.15" width="2.22" height="2.36" />
        <rect id="_17-2" data-name="17" class="cls-6" x="708.75" y="229.52" width="3.03" height="3.22" />
        <rect id="_16-2" data-name="16" class="cls-6" x="564.71" y="494.12" width="15.39" height="16.36" />
        <rect id="_15-2" data-name="15" class="cls-6" x="625.21" y="414.48" width="4.43" height="4.71" />
        <rect id="_14-2" data-name="14" class="cls-6" x="491.17" y="473.79" width="52.43" height="55.72" />
        <rect id="_13-2" data-name="13" class="cls-6" x="500.81" y="433.92" width="33.15" height="35.23" />
        <rect id="_12-2" data-name="12" class="cls-6" x="542.11" y="395.55" width="7.39" height="7.86" />
        <rect id="_11-2" data-name="11" class="cls-6" x="736.39" y="125.24" width="2.17" height="2.3" />
        <rect id="_10" data-name="10" class="cls-6" x="569.66" y="305.31" width="4.29" height="4.56" />
        <rect id="_9-2" data-name="9" class="cls-6" x="486.63" y="624.56" width="2.22" height="2.36" />
        <rect id="_8-2" data-name="8" class="cls-6" x="445.43" y="515.14" width="7.27" height="7.72" />
        <rect id="_7-2" data-name="7" class="cls-6" x="471.58" y="560.92" width="10.6" height="11.26" />
        <rect id="_6-2" data-name="6" class="cls-6" x="524.97" y="576.54" width="11.43" height="12.15" />
        <rect id="_5-2" data-name="5" class="cls-6" x="377.25" y="324.44" width="4.57" height="4.86" />
        <rect id="_4-2" data-name="4" class="cls-6" x="582.93" y="509.62" width="28.54" height="30.33" />
        <rect id="_3-2" data-name="3" class="cls-6" x="575.85" y="281.05" width="6.41" height="6.82" />
        <rect id="_2-2" data-name="2" class="cls-6" x="575.77" y="422.34" width="21.08" height="22.4" />
    </g>
    <g id="power_plant" data-name="power plant">
        <polyline id="_36-2" data-name="36" class="cls-7" points="628.71 491.27 624.53 482.91 632.88 482.91 628.71 491.27" />
        <polyline id="_35-2" data-name="35" class="cls-7" points="376.1 554.11 371.93 545.75 380.28 545.75 376.1 554.11" />
        <polyline id="_34-2" data-name="34" class="cls-7" points="144.45 256.68 139.5 246.79 149.39 246.79 144.45 256.68" />
        <polyline id="_33-2" data-name="33" class="cls-7" points="207.91 438.31 206.78 436.05 209.04 436.05 207.91 438.31" />
        <polyline id="_32-2" data-name="32" class="cls-7" points="383.5 469.92 376.02 454.97 390.97 454.97 383.5 469.92" />
        <polyline id="_31-3" data-name="31" class="cls-7" points="516.58 355.42 513.93 350.13 519.22 350.13 516.58 355.42" />
        <polyline id="_30-3" data-name="30" class="cls-7" points="648.42 453.86 644.68 446.38 652.16 446.38 648.42 453.86" />
        <polyline id="_29-3" data-name="29" class="cls-7" points="613.92 376.77 607.18 363.29 620.66 363.29 613.92 376.77" />
        <polyline id="_28-3" data-name="28" class="cls-7" points="474.68 376.5 468.21 363.56 481.15 363.56 474.68 376.5" />
        <polyline id="_27-3" data-name="27" class="cls-7" points="291.7 370.54 290.57 368.28 292.83 368.28 291.7 370.54" />
        <polyline id="_26-3" data-name="26" class="cls-7" points="432.79 355.42 430.14 350.13 435.43 350.13 432.79 355.42" />
        <polyline id="_25-3" data-name="25" class="cls-7" points="670.6 287.51 664.4 275.11 676.8 275.11 670.6 287.51" />
        <polyline id="_24-3" data-name="24" class="cls-7" points="712.5 247.29 708.32 238.93 716.67 238.93 712.5 247.29" />
        <polyline id="_23-3" data-name="23" class="cls-7" points="572.02 506.84 568.29 499.37 575.76 499.37 572.02 506.84" />
        <polyline id="_22-3" data-name="22" class="cls-7" points="628.71 427.98 622.51 415.58 634.9 415.58 628.71 427.98" />
        <polyline id="_21-3" data-name="21" class="cls-7" points="516.58 508.39 511.29 497.82 521.86 497.82 516.58 508.39" />
        <polyline id="_20-3" data-name="20" class="cls-7" points="515.96 459.01 511.38 449.86 520.54 449.86 515.96 459.01" />
        <polyline id="_19-3" data-name="19" class="cls-7" points="544.92 409.81 539.63 399.25 550.2 399.25 544.92 409.81" />
        <polyline id="_18-3" data-name="18" class="cls-8" points="740.84 149.77 734.36 136.83 747.31 136.83 740.84 149.77" />
        <polyline id="_17-3" data-name="17" class="cls-7" points="572.02 324.75 564.32 309.34 579.73 309.34 572.02 324.75" />
        <polyline id="_16-3" data-name="16" class="cls-7" points="482.69 642.41 477.08 631.2 488.3 631.2 482.69 642.41" />
        <polyline id="_15-3" data-name="15" class="cls-7" points="446.34 529.19 436.28 509.06 456.4 509.06 446.34 529.19" />
        <polyline id="_14-3" data-name="14" class="cls-7" points="474.06 576.21 461.95 551.99 486.17 551.99 474.06 576.21" />
        <polyline id="_13-3" data-name="13" class="cls-7" points="529.51 599.36 510.28 560.88 548.75 560.88 529.51 599.36" />
        <polyline id="_12-3" data-name="12" class="cls-7" points="375.49 344.62 365.78 325.2 385.2 325.2 375.49 344.62" />
        <polyline id="_11-3" data-name="11" class="cls-7" points="597.9 538.1 585.09 512.48 610.71 512.48 597.9 538.1" />
        <polyline id="_10-2" data-name="10" class="cls-7" points="579.42 299.81 574.47 289.92 584.36 289.92 579.42 299.81" />
        <polyline id="_9-3" data-name="9" class="cls-7" points="586.81 443.08 581.53 432.51 592.1 432.51 586.81 443.08" />
    </g>
</svg>
