
<svg version="1.1" xmlns="http://www.w3.org/2000/svg" xmlns:xlink="http://www.w3.org/1999/xlink" x="0px" y="0px"
  viewBox="0 0 1149.4 728.1" style="enable-background:new 0 0 1149.4 728.1;" xml:space="preserve"> 
<g id="rectImg">
 <rect id="rect01" x="79.7" y="69" class="st0" width="157.9" height="50.4"/>
 <rect id="rect02" x="79.7" y="124.4" class="st1" width="157.9" height="335.6"/>
 <rect id="rect03" x="79.7" y="465" class="st2" width="157.9" height="44.2"/>
 <rect id="rect04" x="79.7" y="514.3" class="st3" width="157.9" height="79.1"/>
 <rect id="rect05" x="79.7" y="598.4" class="st4" width="157.9" height="60.7"/>
 <rect id="rect06" x="242.6" y="69" class="st5" width="232.1" height="114.8"/>
 <rect id="rect07" x="242.6" y="188.9" class="st6" width="232.1" height="189.6"/>
 <rect id="rect08" x="242.6" y="383.5" class="st7" width="232.1" height="68.3"/>
 <rect id="rect09" x="242.6" y="456.8" class="st8" width="232.1" height="202.3"/>
 <rect id="rect10" x="479.7" y="69" class="st9" width="44" height="151.8"/>
 <rect id="rect11" x="528.8" y="69" class="st10" width="91" height="151.8"/>
 <rect id="rect16" x="624.7" y="69" class="st11" width="174.1" height="151.8"/>
 <rect id="rect20" x="803.9" y="69" class="st12" width="39.8" height="151.8"/>
 <rect id="rect26" x="848.7" y="69" class="st13" width="221" height="151.8"/>
 <rect id="rect12" x="479.7" y="225.8" class="st14" width="149.8" height="245.4"/>
 <rect id="rect13" x="479.7" y="476.2" class="st15" width="149.8" height="25.2"/>
 <rect id="rect14" x="479.7" y="506.5" class="st16" width="149.8" height="77"/>
 <rect id="rect15" x="479.7" y="588.5" class="st17" width="149.8" height="70.6"/>
 <rect id="rect17" x="634.6" y="225.8" class="st18" width="33.9" height="115.3"/>
 <rect id="rect19" x="634.6" y="397.7" class="st19" width="33.9" height="261.4"/>
 <rect id="rect21" x="673.5" y="225.8" class="st20" width="310.4" height="248.3"/>
 <rect id="rect27" x="988.9" y="225.8" class="st21" width="80.8" height="248.3"/>
 <rect id="rect22" x="673.5" y="479.1" class="st22" width="170.3" height="4.5"/>
 <rect id="rect24" x="673.5" y="488.6" class="st23" width="170.3" height="170.4"/>
 <rect id="rect23" x="848.8" y="479.1" class="st24" width="99.8" height="7.8"/>
 <rect id="rect29" x="951" y="479.1" class="st24" width="4" height="180"/>
 <rect id="rect25" x="848.8" y="491.8" class="st25" width="99.8" height="167.2"/>
 <rect id="rect28" x="957.2" y="479.1" class="st26" width="112.5" height="180"/>
 <rect id="rect18" x="634.6" y="346.1" class="st27" width="33.9" height="46.6"/>
</g>
<g id="rectImgBorder">
 <rect id="rect01_1_" x="79.7" y="69" class="st28" width="157.9" height="50.4"/>
 <rect id="rect02_1_" x="79.7" y="124.4" class="st28" width="157.9" height="335.6"/>
 <rect id="rect03_1_" x="79.7" y="465" class="st28" width="157.9" height="44.2"/>
 <rect id="rect04_1_" x="79.7" y="514.3" class="st28" width="157.9" height="79.1"/>
 <rect id="rect05_1_" x="79.7" y="598.4" class="st28" width="157.9" height="60.7"/>
 <rect id="rect06_1_" x="242.6" y="69" class="st28" width="232.1" height="114.8"/>
 <rect id="rect07_1_" x="242.6" y="188.9" class="st28" width="232.1" height="189.6"/>
 <rect id="rect08_1_" x="242.6" y="383.5" class="st28" width="232.1" height="68.3"/>
 <rect id="rect09_1_" x="242.6" y="456.8" class="st28" width="232.1" height="202.3"/>
 <rect id="rect10_1_" x="479.7" y="69" class="st28" width="44" height="151.8"/>
 <rect id="rect11_1_" x="528.8" y="69" class="st28" width="91" height="151.8"/>
 <rect id="rect16_1_" x="624.7" y="69" class="st28" width="174.1" height="151.8"/>
 <rect id="rect20_1_" x="803.9" y="69" class="st28" width="39.8" height="151.8"/>
 <rect id="rect26_1_" x="848.7" y="69" class="st28" width="221" height="151.8"/>
 <rect id="rect12_1_" x="479.7" y="225.8" class="st28" width="149.8" height="245.4"/>
 <rect id="rect13_1_" x="479.7" y="476.2" class="st28" width="149.8" height="25.2"/>
 <rect id="rect14_1_" x="479.7" y="506.5" class="st28" width="149.8" height="77"/>
 <rect id="rect15_1_" x="479.7" y="588.5" class="st28" width="149.8" height="70.6"/>
 <rect id="rect17_1_" x="634.6" y="225.8" class="st28" width="33.9" height="115.3"/>
 <rect id="rect19_1_" x="634.6" y="397.7" class="st28" width="33.9" height="261.4"/>
 <rect id="rect21_1_" x="673.5" y="225.8" class="st28" width="310.4" height="248.3"/>
 <rect id="rect27_1_" x="988.9" y="225.8" class="st28" width="80.8" height="248.3"/>
 <rect id="rect22_1_" x="673.5" y="479.1" class="st28" width="170.3" height="4.5"/>
 <rect id="rect24_1_" x="673.5" y="488.6" class="st28" width="170.3" height="170.4"/>
 <rect id="rect23_1_" x="848.8" y="479.1" class="st28" width="99.8" height="7.8"/>
 <rect id="rect29_1_" x="951" y="479.1" class="st28" width="4" height="180"/>
 <rect id="rect25_1_" x="848.8" y="491.8" class="st28" width="99.8" height="167.2"/>
 <rect id="rect28_1_" x="957.2" y="479.1" class="st28" width="112.5" height="180"/>
 <rect id="rect18_1_" x="634.6" y="346.1" class="st28" width="33.9" height="46.6"/>
</g>
<g id="label">
 <g>
  <text transform="matrix(1 0 0 1 133.6088 96.4542)" class="st29 st30 st31">27</text>
  <text transform="matrix(1 0 0 1 133.6088 109.6541)" class="st29 st30 st31">ANHUI</text>
 </g>
 <g>
  <text transform="matrix(1 0 0 1 125.9657 294.4453)" class="st29 st30 st31">166</text>
  <text transform="matrix(1 0 0 1 125.9657 307.6453)" class="st29 st30 st31">BEIJING</text>
 </g>
 <g>
  <text transform="matrix(1 0 0 1 125.8895 485.3594)" class="st29 st30 st31">24</text>
  <text transform="matrix(1 0 0 1 125.8895 498.5594)" class="st29 st30 st31">CHONGQING</text>
 </g>
 <g>
  <text transform="matrix(1 0 0 1 126.1676 556.0401)" class="st29 st30 st31">41</text>
  <text transform="matrix(1 0 0 1 126.1676 569.2401)" class="st29 st30 st31">FUJIAN</text>
 </g>
 <g>
  <text transform="matrix(1 0 0 1 125.8588 627.9283)" class="st29 st30 st31">32</text>
  <text transform="matrix(1 0 0 1 125.8588 641.1282)" class="st29 st30 st31">GANSU</text>
 </g>
 <g>
  <text transform="matrix(1 0 0 1 313.7604 128.6788)" class="st29 st30 st31">85</text>
  <text transform="matrix(1 0 0 1 313.7604 141.8787)" class="st29 st30 st31">GUANGDONG</text>
 </g>
 <g>
  <text transform="matrix(1 0 0 1 314.62 285.8882)" class="st29 st30 st31">138</text>
  <text transform="matrix(1 0 0 1 314.62 299.0881)" class="st29 st30 st31">GUANGZHOU</text>
 </g>
 <g>
  <text transform="matrix(1 0 0 1 315.0692 419.834)" class="st29 st30 st31">52</text>
  <text transform="matrix(1 0 0 1 315.0692 433.0339)" class="st29 st30 st31">GUIZHOU</text>
 </g>
 <g>
  <text transform="matrix(1 0 0 1 314.8646 560.1241)" class="st29 st30 st31">147</text>
  <text transform="matrix(1 0 0 1 314.8646 573.324)" class="st29 st30 st31">HEBEI</text>
 </g>
 <g>
  <text transform="matrix(1 0 0 1 543.8381 106.6029)" class="st29 st30 st31">23</text>
  <text transform="matrix(1 0 0 1 543.8381 119.8029)" class="st29 st30 st31">HEILONG</text>
  <text transform="matrix(1 0 0 1 543.8381 133.0028)" class="st29 st30 st31">JIANG</text>
 </g>
 <g>
  <text transform="matrix(1 0 0 1 483.6493 164.4846)" class="st29 st30 st31">45</text>
  <text transform="matrix(1 0 0 1 483.6493 177.6846)" class="st29 st30 st31">HENAN</text>
 </g>
 <g>
  <text transform="matrix(1 0 0 1 686.7449 145.9338)" class="st29 st30 st31">84</text>
  <text transform="matrix(1 0 0 1 686.7449 159.1337)" class="st29 st30 st31">HUBEI</text>
 </g>
 <g>
  <text transform="matrix(1 0 0 1 807.3588 147.1339)" class="st29 st30 st31">21</text>
  <text transform="matrix(1 0 0 1 807.3588 160.3338)" class="st29 st30 st31">HUNAN</text>
 </g>
 <g>
  <text transform="matrix(1 0 0 1 928.7821 147.1339)" class="st29 st30 st31">106</text>
  <text transform="matrix(1 0 0 1 928.7821 160.3338)" class="st29 st30 st31">INNER MONGOL</text>
 </g>
 <g>
  <text transform="matrix(1 0 0 1 519.9108 350.7246)" class="st29 st30 st31">116</text>
  <text transform="matrix(1 0 0 1 519.9108 363.9246)" class="st29 st30 st31">JIANGSU</text>
 </g>
 <g>
  <text transform="matrix(1 0 0 1 525.005 485.599)" class="st29 st30 st31">14</text>
  <text transform="matrix(1 0 0 1 525.005 498.799)" class="st29 st30 st31">JIANGXI</text>
 </g>
 <g>
  <text transform="matrix(1 0 0 1 525.5612 547.1787)" class="st29 st30 st31">38</text>
  <text transform="matrix(1 0 0 1 525.5612 560.3787)" class="st29 st30 st31">JILIN</text>
 </g>
 <g>
  <text transform="matrix(1 0 0 1 525.1149 625.9761)" class="st29 st30 st31">35</text>
  <text transform="matrix(1 0 0 1 525.1149 639.1761)" class="st29 st30 st31">LIAONING</text>
 </g>
 <g>
  <text transform="matrix(1 0 0 1 640.2339 281.6631)" class="st29 st30 st31">14</text>
  <text transform="matrix(1 0 0 1 640.2339 294.863)" class="st32"><tspan x="0" y="0" class="st29 st30 st31">NING</tspan><tspan x="0" y="13.2" class="st29 st30 st31">XIA</tspan></text>
 </g>
 <g>
  <text transform="matrix(1 0 0 1 641.6833 360.9933)" class="st29 st30 st31">6</text>
  <text transform="matrix(1 0 0 1 641.6833 374.1932)" class="st32"><tspan x="0" y="0" class="st29 st30 st31">QING</tspan><tspan x="0" y="13.2" class="st29 st30 st31">HAI</tspan></text>
 </g>
 <g>
  <text transform="matrix(1 0 0 1 640.2336 532.5142)" class="st29 st30 st31">31</text>
  <text transform="matrix(1 0 0 1 640.2336 545.7142)" class="st29 st30 st31">SHAAN</text>
  <text transform="matrix(1 0 0 1 640.2336 558.2739)" class="st29 st30 st31">XI</text>
 </g>
 <g>
  <text transform="matrix(1 0 0 1 802.6573 352.1528)" class="st29 st30 st31">239</text>
  <text transform="matrix(1 0 0 1 802.6573 365.3528)" class="st29 st30 st31">SHANGHAI</text>
 </g>
 <g>
  <text transform="matrix(1 0 0 1 1010.5804 352.1528)" class="st29 st30 st31">65</text>
  <text transform="matrix(1 0 0 1 1010.5804 365.3528)" class="st29 st30 st31">SHAXI</text>
 </g>
 <g>
  <text transform="matrix(1 0 0 1 737.9875 582.0416)" class="st29 st30 st31">92</text>
  <text transform="matrix(1 0 0 1 737.9875 595.2415)" class="st29 st30 st31">TIANJING</text>
 </g>
 <g>
  <text transform="matrix(1 0 0 1 869.0831 581.6529)" class="st29 st30 st31">54</text>
  <text transform="matrix(1 0 0 1 869.0831 594.8528)" class="st29 st30 st31">XINJIANG</text>
 </g>
 <g>
  <text transform="matrix(1 0 0 1 933.2169 539.1142)" class="st29 st30 st31">2</text>
  <text transform="matrix(1 0 0 1 933.2169 552.3141)" class="st29 st30 st31">YUNNAN</text>
 </g>
 <g id="text23_1_">
  <text transform="matrix(1 0 0 1 884.0375 486.6187)" class="st29 st30 st31">4</text>
  <text transform="matrix(1 0 0 1 894.7177 486.6183)" class="st29 st30 st31">TIBET</text>
 </g>
 <g id="text22_1_">
  <text transform="matrix(1 0 0 1 742.1038 486.1185)" class="st29 st30 st31">5</text>
  <text transform="matrix(1 0 0 1 752.784 486.1182)" class="st29 st30 st31">SICHUAN</text>
 </g>
 <g>
  <text transform="matrix(1 0 0 1 977.9008 598.7508)" class="st29 st30 st31">65</text>
  <text transform="matrix(1 0 0 1 977.9008 611.9507)" class="st29 st30 st31">ZHEJIANG</text>
 </g>
</g>
</svg>