<svg xmlns="http://www.w3.org/2000/svg" viewBox="0 0 991 591">

    <g id="rectboxfill">
        <g id="raw" class="rectbox-1">
            <rect class="rectbox-2" x="0.5" y="0.5" width="157.93" height="50.4" />
            <rect class="rectbox-3" x="0.5" y="55.9" width="157.93" height="335.59" />
            <rect class="rectbox-4" x="0.5" y="396.48" width="157.93" height="44.24" />
            <rect class="rectbox-5" x="0.5" y="445.72" width="157.93" height="79.12" />
            <rect class="rectbox-6" x="0.5" y="529.84" width="157.93" height="60.66" />
            <rect class="rectbox-7" x="163.43" y="0.5" width="232.09" height="114.85" />
            <rect class="rectbox-8" x="163.43" y="120.35" width="232.09" height="189.57" />
            <rect class="rectbox-9" x="163.43" y="314.92" width="232.09" height="68.32" />
            <rect class="rectbox-10" x="163.43" y="388.24" width="232.09" height="202.26" />
            <rect class="rectbox-11" x="400.52" y="0.5" width="44.05" height="151.76" />
            <rect class="rectbox-12" x="449.57" y="0.5" width="90.96" height="151.76" />
            <rect class="rectbox-13" x="545.53" y="0.5" width="174.13" height="151.76" />
            <rect class="rectbox-14" x="724.67" y="0.5" width="39.78" height="151.76" />
            <rect class="rectbox-15" x="769.45" y="0.5" width="221.05" height="151.76" />
            <rect class="rectbox-16" x="400.52" y="157.26" width="149.85" height="245.43" />
            <rect class="rectbox-17" x="400.52" y="407.68" width="149.85" height="25.22" />
            <rect class="rectbox-18" x="400.52" y="437.91" width="149.85" height="77.04" />
            <rect class="rectbox-19" x="400.52" y="519.94" width="149.85" height="70.56" />
            <rect class="rectbox-20" x="555.37" y="157.26" width="33.9" height="115.3" />
            <rect class="rectbox-21" x="555.37" y="277.56" width="33.9" height="46.56" />
            <rect class="rectbox-22" x="555.37" y="329.12" width="33.9" height="261.38" />
            <rect class="rectbox-23" x="594.27" y="157.26" width="310.44" height="248.28" />
            <rect class="rectbox-24" x="909.71" y="157.26" width="80.79" height="248.28" />
            <rect class="rectbox-25" x="594.27" y="410.54" width="170.31" height="4.53" />
            <rect class="rectbox-26" x="594.27" y="420.07" width="170.31" height="170.43" />
            <rect class="rectbox-27" x="769.58" y="410.54" width="99.82" height="7.76" />
            <rect class="rectbox-28" x="769.58" y="423.29" width="99.82" height="167.21" />
            <rect class="rectbox-29" x="873.72" y="410.54" height="179.96" />
            <rect class="rectbox-30" x="878.02" y="410.54" width="112.48" height="179.96" />
            <rect class="rectbox-2" x="0.5" y="0.5" width="157.93" height="50.4" />
            <rect class="rectbox-3" x="0.5" y="55.9" width="157.93" height="335.59" />
            <rect class="rectbox-4" x="0.5" y="396.48" width="157.93" height="44.24" />
            <rect class="rectbox-5" x="0.5" y="445.72" width="157.93" height="79.12" />
            <rect class="rectbox-6" x="0.5" y="529.84" width="157.93" height="60.66" />
            <rect class="rectbox-7" x="163.43" y="0.5" width="232.09" height="114.85" />
            <rect class="rectbox-8" x="163.43" y="120.35" width="232.09" height="189.57" />
            <rect class="rectbox-9" x="163.43" y="314.92" width="232.09" height="68.32" />
            <rect class="rectbox-10" x="163.43" y="388.24" width="232.09" height="202.26" />
            <rect class="rectbox-11" x="400.52" y="0.5" width="44.05" height="151.76" />
            <rect class="rectbox-12" x="449.57" y="0.5" width="90.96" height="151.76" />
            <rect class="rectbox-14" x="724.67" y="0.5" width="39.78" height="151.76" />
            <rect class="rectbox-15" x="769.45" y="0.5" width="221.05" height="151.76" />
            <rect class="rectbox-16" x="400.52" y="157.26" width="149.85" height="245.43" />
            <rect class="rectbox-17" x="400.52" y="407.68" width="149.85" height="25.22" />
            <rect class="rectbox-18" x="400.52" y="437.91" width="149.85" height="77.04" />
            <rect class="rectbox-19" x="400.52" y="519.94" width="149.85" height="70.56" />
            <rect class="rectbox-20" x="555.37" y="157.26" width="33.9" height="115.3" />
            <rect class="rectbox-21" x="555.37" y="277.56" width="33.9" height="46.56" />
            <rect class="rectbox-22" x="555.37" y="329.12" width="33.9" height="261.38" />
            <rect class="rectbox-23" x="594.27" y="157.26" width="310.44" height="248.28" />
            <rect class="rectbox-24" x="909.71" y="157.26" width="80.79" height="248.28" />
            <rect class="rectbox-31" x="594.27" y="410.54" width="170.31" height="4.53" />
            <rect class="rectbox-26" x="594.27" y="420.07" width="170.31" height="170.43" />
            <rect class="rectbox-32" x="769.58" y="410.54" width="99.82" height="7.76" />
            <rect class="rectbox-28" x="769.58" y="423.29" width="99.82" height="167.21" />
            <rect class="rectbox-33" x="873.72" y="410.54" height="179.96" />
            <rect class="rectbox-30" x="878.02" y="410.54" width="112.48" height="179.96" />
        </g>
        <g id="raw-2" data-name="raw">
            <rect class="rectbox-34" x="0.5" y="0.5" width="157.93" height="50.4" />
            <rect class="rectbox-34" x="0.5" y="55.9" width="157.93" height="335.59" />
            <rect class="rectbox-34" x="0.5" y="396.48" width="157.93" height="44.24" />
            <rect class="rectbox-34" x="0.5" y="445.72" width="157.93" height="79.12" />
            <rect class="rectbox-34" x="0.5" y="529.84" width="157.93" height="60.66" />
            <rect class="rectbox-34" x="163.43" y="0.5" width="232.09" height="114.85" />
            <rect class="rectbox-34" x="163.43" y="120.35" width="232.09" height="189.57" />
            <rect class="rectbox-34" x="163.43" y="314.92" width="232.09" height="68.32" />
            <rect class="rectbox-34" x="163.43" y="388.24" width="232.09" height="202.26" />
            <rect class="rectbox-34" x="400.52" y="0.5" width="44.05" height="151.76" />
            <rect class="rectbox-34" x="449.57" y="0.5" width="90.96" height="151.76" />
            <rect class="rectbox-34" x="545.53" y="0.5" width="174.13" height="151.76" />
            <rect class="rectbox-34" x="724.67" y="0.5" width="39.78" height="151.76" />
            <rect class="rectbox-34" x="769.45" y="0.5" width="221.05" height="151.76" />
            <rect class="rectbox-34" x="400.52" y="157.26" width="149.85" height="245.43" />
            <rect class="rectbox-34" x="400.52" y="407.68" width="149.85" height="25.22" />
            <rect class="rectbox-34" x="400.52" y="437.91" width="149.85" height="77.04" />
            <rect class="rectbox-34" x="400.52" y="519.94" width="149.85" height="70.56" />
            <rect class="rectbox-34" x="555.37" y="157.26" width="33.9" height="115.3" />
            <rect class="rectbox-34" x="555.37" y="277.56" width="33.9" height="46.56" />
            <rect class="rectbox-34" x="555.37" y="329.12" width="33.9" height="261.38" />
            <rect class="rectbox-34" x="594.27" y="157.26" width="310.44" height="248.28" />
            <rect class="rectbox-34" x="909.71" y="157.26" width="80.79" height="248.28" />
            <rect class="rectbox-34" x="594.27" y="410.54" width="170.31" height="4.53" />
            <rect class="rectbox-34" x="594.27" y="420.07" width="170.31" height="170.43" />
            <rect class="rectbox-34" x="769.58" y="410.54" width="99.82" height="7.76" />
            <rect class="rectbox-34" x="769.58" y="423.29" width="99.82" height="167.21" />
            <rect class="rectbox-34" x="873.72" y="410.54" height="179.96" />
            <rect class="rectbox-34" x="878.02" y="410.54" width="112.48" height="179.96" />
            <rect class="rectbox-34" x="0.5" y="0.5" width="157.93" height="50.4" />
            <rect class="rectbox-34" x="0.5" y="55.9" width="157.93" height="335.59" />
            <rect class="rectbox-34" x="0.5" y="396.48" width="157.93" height="44.24" />
            <rect class="rectbox-34" x="0.5" y="445.72" width="157.93" height="79.12" />
            <rect class="rectbox-34" x="0.5" y="529.84" width="157.93" height="60.66" />
            <rect class="rectbox-34" x="163.43" y="0.5" width="232.09" height="114.85" />
            <rect class="rectbox-34" x="163.43" y="120.35" width="232.09" height="189.57" />
            <rect class="rectbox-34" x="163.43" y="314.92" width="232.09" height="68.32" />
            <rect class="rectbox-34" x="163.43" y="388.24" width="232.09" height="202.26" />
            <rect class="rectbox-34" x="400.52" y="0.5" width="44.05" height="151.76" />
            <rect class="rectbox-34" x="449.57" y="0.5" width="90.96" height="151.76" />
            <rect class="rectbox-34" x="724.67" y="0.5" width="39.78" height="151.76" />
            <rect class="rectbox-34" x="769.45" y="0.5" width="221.05" height="151.76" />
            <rect class="rectbox-34" x="400.52" y="157.26" width="149.85" height="245.43" />
            <rect class="rectbox-34" x="400.52" y="407.68" width="149.85" height="25.22" />
            <rect class="rectbox-34" x="400.52" y="437.91" width="149.85" height="77.04" />
            <rect class="rectbox-34" x="400.52" y="519.94" width="149.85" height="70.56" />
            <rect class="rectbox-34" x="555.37" y="157.26" width="33.9" height="115.3" />
            <rect class="rectbox-34" x="555.37" y="277.56" width="33.9" height="46.56" />
            <rect class="rectbox-34" x="555.37" y="329.12" width="33.9" height="261.38" />
            <rect class="rectbox-34" x="594.27" y="157.26" width="310.44" height="248.28" />
            <rect class="rectbox-34" x="909.71" y="157.26" width="80.79" height="248.28" />
            <rect class="rectbox-35" x="594.27" y="410.54" width="170.31" height="4.53" />
            <rect class="rectbox-34" x="594.27" y="420.07" width="170.31" height="170.43" />
            <rect class="rectbox-35" x="769.58" y="410.54" width="99.82" height="7.76" />
            <rect class="rectbox-34" x="769.58" y="423.29" width="99.82" height="167.21" />
            <rect class="rectbox-35" x="873.72" y="410.54" height="179.96" />
            <rect class="rectbox-34" x="878.02" y="410.54" width="112.48" height="179.96" />
        </g>
    </g>
    <g id="rectboxlabel"><text class="rectbox-36" transform="translate(53.48 27.55)">27</text><text class="rectbox-36" transform="translate(53.48 40.75)">ANHUI</text><text class="rectbox-36" transform="translate(45.84 225.54)">166</text><text class="rectbox-36" transform="translate(45.84 238.74)">BEIJING</text><text class="rectbox-36" transform="translate(45.76 416.45)">24</text><text class="rectbox-36" transform="translate(45.76 429.65)">CHONGQING</text><text class="rectbox-36" transform="translate(46.04 487.13)">41</text><text class="rectbox-36" transform="translate(46.04 500.33)">FUJIAN</text><text class="rectbox-36" transform="translate(45.73 559.02)">32</text><text class="rectbox-36" transform="translate(45.73 572.22)">GANSU</text><text class="rectbox-36" transform="translate(233.63 59.77)">85</text><text class="rectbox-36" transform="translate(233.63 72.97)">GUANGDONG</text><text class="rectbox-36" transform="translate(234.49 216.98)">138</text><text class="rectbox-36" transform="translate(234.49 230.18)">GUANGZHOU</text><text class="rectbox-36" transform="translate(234.94 350.93)">52</text><text class="rectbox-36" transform="translate(234.94 364.13)">GUIZHOU</text><text class="rectbox-36" transform="translate(234.74 491.22)">147</text><text class="rectbox-36" transform="translate(234.74 504.42)">HEBEI</text><text class="rectbox-36" transform="translate(463.71 37.7)">23</text><text class="rectbox-36" transform="translate(463.71 50.9)">HEILONG</text><text class="rectbox-36" transform="translate(463.71 64.1)">JIANG</text><text class="rectbox-36" transform="translate(463.71 95.58)">45</text><text class="rectbox-36" transform="translate(463.71 108.78)">HENAN</text><text class="rectbox-36" transform="translate(606.62 77.03)">84</text><text class="rectbox-36" transform="translate(606.62 90.23)">HUBEI</text><text class="rectbox-36" transform="translate(780.09 78.23)">21</text><text class="rectbox-36" transform="translate(780.09 91.43)">HUNAN</text><text class="rectbox-36" transform="translate(848.66 78.23)">106</text><text class="rectbox-36" transform="translate(848.66 91.43)">INNER MONGO<tspan class="rectbox-37" x="80.06" y="0">L</tspan></text><text class="rectbox-36" transform="translate(439.78 281.82)">
            <tspan class="rectbox-38">1</tspan>
            <tspan x="5.3" y="0">16</tspan>
        </text><text class="rectbox-36" transform="translate(439.78 295.02)">JIANGSU</text><text class="rectbox-36" transform="translate(444.88 380.64)">14</text><text class="rectbox-36" transform="translate(444.88 393.84)">JIANGXI</text><text class="rectbox-36" transform="translate(445.44 478.27)">38</text><text class="rectbox-36" transform="translate(445.44 491.47)">JILIN</text><text class="rectbox-36" transform="translate(444.99 557.07)">35</text><text class="rectbox-36" transform="translate(444.99 570.27)">LIAONING</text><text class="rectbox-36" transform="translate(605.89 216.76)">14</text><text class="rectbox-36" transform="translate(605.89 229.96)">NINGXI<tspan class="rectbox-39" x="37.89" y="0">A</tspan></text><text class="rectbox-36" transform="translate(607.34 298.69)">6</text><text class="rectbox-36" transform="translate(607.34 311.89)">QINGHAI</text><text class="rectbox-36" transform="translate(607.34 463.61)">31</text><text class="rectbox-36" transform="translate(607.34 476.81)">SHAAN</text><text class="rectbox-36" transform="translate(607.34 489.37)">XI</text><text class="rectbox-36" transform="translate(722.53 283.25)">239</text><text class="rectbox-36" transform="translate(722.53 296.45)">SHANGHAI</text><text class="rectbox-36" transform="translate(930.45 283.25)">65</text><text class="rectbox-36" transform="translate(930.45 296.45)">SHAXI</text><text class="rectbox-40" transform="translate(648.56 397.88)">
            <tspan xml:space="preserve">5 SICHUAN</tspan>
        </text><text class="rectbox-36" transform="translate(657.86 513.14)">92</text><text class="rectbox-36" transform="translate(657.86 526.34)">TIANJING</text><text class="rectbox-40" transform="translate(797.9 399.49)">4 <tspan class="rectbox-41" x="9.17" y="0"> </tspan>
            <tspan x="12.03" y="0">TIBE</tspan>
            <tspan class="rectbox-41" x="36.48" y="0">T</tspan>
        </text><text class="rectbox-36" transform="translate(788.96 512.75)">54</text><text class="rectbox-36" transform="translate(788.96 525.95)">XINJIANG</text><text class="rectbox-36" transform="translate(897.31 470.21)">2</text><text class="rectbox-36" transform="translate(897.31 483.41)">YUNNAN</text><text class="rectbox-36" transform="translate(897.77 529.85)">65</text><text class="rectbox-36" transform="translate(897.77 543.05)">ZHEJIANG</text></g>
</svg>
