
<svg version="1.1" xmlns="http://www.w3.org/2000/svg" xmlns:xlink="http://www.w3.org/1999/xlink" x="0px" y="0px"
	 viewBox="0 0 900 900" style="enable-background:new 0 0 900 900;" xml:space="preserve">

<g id="bubbles">
	<circle class="bubble grouping" cx="331.8" cy="446.5" r="160.1"/>
	<circle class="bubble grouping" cx="606" cy="446.5" r="110.2"/>
	<circle class="bubble grouping" cx="510.9" cy="628.7" r="91.5"/>
	<circle class="bubble grouping" cx="511.5" cy="259.6" r="95.3"/>
	<circle class="bubble grouping" cx="329.9" cy="716" r="105.5"/>
	<circle class="bubble grouping" cx="334.4" cy="192.1" r="90.4"/>
	<circle class="bubble grouping" cx="701.2" cy="632.6" r="95"/>
	<circle class="bubble grouping" cx="667.6" cy="284.9" r="58.9"/>
	<circle class="bubble grouping" cx="183.7" cy="262.6" r="72.1"/>
	<circle class="bubble grouping" cx="209.2" cy="617.4" r="46.4"/>
	<circle class="bubble grouping" cx="463" cy="109.7" r="58.4"/>
	<circle class="bubble grouping" cx="486" cy="782.4" r="60.3"/>
	<circle class="bubble grouping" cx="765.7" cy="366.2" r="64.7"/>
	<circle class="bubble grouping" cx="752.5" cy="501" r="42.3"/>
	<circle class="bubble grouping" cx="632.3" cy="185.9" r="42.3"/>
	<circle class="bubble grouping" cx="601.5" cy="731.3" r="41.4"/>
	<circle class="bubble grouping" cx="152.3" cy="545.8" r="41.2"/>
	<circle class="bubble grouping" cx="115.7" cy="382.2" r="61.5"/>
	<circle class="bubble grouping" cx="97.7" cy="483.6" r="37.7"/>
	<circle class="bubble grouping" cx="837.4" cy="458.8" r="48.6"/>
	<circle class="bubble grouping" cx="581.6" cy="809.2" r="35.1"/>
	<circle class="bubble grouping" cx="567.1" cy="137.4" r="35.1"/>
	<circle class="bubble grouping" cx="548.8" cy="67.4" r="33.4"/>
	<circle class="bubble grouping" cx="189.5" cy="697.5" r="32.2"/>
	<circle class="bubble grouping" cx="212.7" cy="158.8" r="31.9"/>
	<circle class="bubble grouping" cx="128.3" cy="617.6" r="30.6"/>
	<circle class="bubble grouping" cx="757.9" cy="269.1" r="28.9"/>
	<circle class="bubble grouping" cx="716.6" cy="196" r="38.8"/>
	<circle class="bubble grouping" cx="374.7" cy="69.5" r="34.7"/>
	<circle class="bubble grouping" cx="798.3" cy="555.6" r="25"/>
	<circle class="bubble grouping" cx="407.4" cy="827.4" r="26.4"/>
	<circle class="bubble grouping" cx="673.3" cy="760.8" r="32.4"/>
	<circle class="bubble grouping" cx="95" cy="299.4" r="20"/>
	<circle class="bubble grouping" cx="627.3" cy="114.3" r="25.6"/>
	<circle class="bubble grouping" cx="81.2" cy="549.2" r="26.1"/>
	<circle class="bubble grouping" cx="142.7" cy="668.9" r="18.8"/>
	<circle class="bubble grouping" cx="771.1" cy="220.8" r="17.2"/>
	<circle class="bubble grouping" cx="81.8" cy="596" r="16.8"/>
	<circle class="bubble grouping" cx="208.5" cy="745.4" r="15.5"/>
	<circle class="bubble grouping" cx="42.4" cy="440.7" r="28.4"/>
	<circle class="bubble grouping" cx="249.3" cy="125.7" r="13.6"/>
	<circle class="bubble grouping" cx="681.2" cy="154.4" r="12"/>
	<circle class="bubble grouping" cx="808.3" cy="516.3" r="11.6"/>
	<circle class="bubble grouping" cx="796" cy="292" r="11.6"/>
	<circle class="bubble grouping" cx="834.1" cy="522.2" r="11"/>
	<circle class="bubble grouping" cx="169.9" cy="177" r="10.7"/>
	<circle class="bubble grouping" cx="329" cy="87.4" r="10.5"/>
	<circle class="bubble grouping" cx="801.7" cy="593.3" r="9"/>
	<circle class="bubble grouping" cx="658.2" cy="137.2" r="9"/>
	<circle class="bubble grouping" cx="258.1" cy="446.5" r="82.5"/>
	<circle class="bubble grouping" cx="416.3" cy="446.5" r="71.8"/>
	<circle class="bubble grouping" cx="562.7" cy="446.5" r="63.1"/>
	<circle class="bubble grouping" cx="671" cy="446.5" r="41.3"/>
	<circle class="bubble grouping" cx="633.9" cy="510.5" r="28.8"/>
	<circle class="bubble grouping" cx="633.6" cy="384.1" r="27.5"/>
	<circle class="bubble grouping" cx="500.8" cy="628.7" r="77.6"/>
	<circle class="bubble grouping" cx="590.4" cy="628.7" r="8.1"/>
	<circle class="bubble grouping" cx="493.5" cy="259.6" r="73.4"/>
	<circle class="bubble grouping" cx="586.9" cy="259.6" r="16.1"/>
	<circle class="bubble grouping" cx="295.9" cy="716" r="67.7"/>
	<circle class="bubble grouping" cx="399.5" cy="716" r="32"/>
	<circle class="bubble grouping" cx="313.4" cy="192.1" r="65.5"/>
	<circle class="bubble grouping" cx="401.9" cy="192.1" r="19.1"/>
	<circle class="bubble grouping" cx="662" cy="632.6" r="51.9"/>
	<circle class="bubble grouping" cx="755" cy="632.6" r="37.3"/>
	<circle class="bubble grouping" cx="655.1" cy="284.9" r="42.5"/>
	<circle class="bubble grouping" cx="712" cy="284.9" r="10.6"/>
	<circle class="bubble grouping" cx="153.4" cy="262.6" r="38"/>
	<circle class="bubble grouping" cx="223.6" cy="262.6" r="28.3"/>
	<circle class="bubble grouping" cx="209.2" cy="617.4" r="42.5"/>
	<circle class="bubble grouping" cx="449" cy="109.7" r="40.5"/>
	<circle class="bubble grouping" cx="505.5" cy="109.7" r="12.1"/>
	<circle class="bubble grouping" cx="459.1" cy="774.3" r="28.3"/>
	<circle class="bubble grouping" cx="516.3" cy="774.3" r="25"/>
	<circle class="bubble grouping" cx="490.7" cy="817.3" r="21.2"/>
	<circle class="bubble grouping" cx="738.7" cy="366.2" r="33.8"/>
	<circle class="bubble grouping" cx="801.4" cy="366.2" r="25"/>
	<circle class="bubble grouping" cx="752.5" cy="501" r="38.4"/>
	<circle class="bubble grouping" cx="632.3" cy="185.9" r="38.4"/>
	<circle class="bubble grouping" cx="601.5" cy="731.3" r="37.6"/>
	<circle class="bubble grouping" cx="152.3" cy="545.8" r="37.3"/>
	<circle class="bubble grouping" cx="89.3" cy="382.2" r="31.2"/>
	<circle class="bubble grouping" cx="148.9" cy="382.2" r="24.5"/>
	<circle class="bubble grouping" cx="97.7" cy="483.6" r="33.8"/>
	<circle class="bubble grouping" cx="837.4" cy="458.8" r="44.7"/>
	<circle class="bubble grouping" cx="581.6" cy="809.2" r="31.2"/>
	<circle class="bubble grouping" cx="567.1" cy="137.4" r="31.2"/>
	<circle class="bubble grouping" cx="548.8" cy="67.4" r="29.5"/>
	<circle class="bubble grouping" cx="189.5" cy="697.5" r="28.3"/>
	<circle class="bubble grouping" cx="212.7" cy="158.8" r="28"/>
	<circle class="bubble grouping" cx="128.3" cy="617.6" r="26.7"/>
	<circle class="bubble grouping" cx="757.9" cy="269.1" r="25"/>
	<circle class="bubble grouping" cx="716.6" cy="196" r="34.9"/>
	<circle class="bubble grouping" cx="374.7" cy="69.5" r="30.8"/>
	<circle class="bubble grouping" cx="798.3" cy="555.6" r="21.2"/>
	<circle class="bubble grouping" cx="407.4" cy="827.4" r="22.5"/>
	<circle class="bubble grouping" cx="659.8" cy="760.8" r="14.9"/>
	<circle class="bubble grouping" cx="690.2" cy="760.8" r="11.6"/>
	<circle class="bubble grouping" cx="95" cy="299.4" r="16.1"/>
	<circle class="bubble grouping" cx="627.3" cy="114.3" r="21.7"/>
	<circle class="bubble grouping" cx="81.2" cy="549.2" r="22.2"/>
	<circle class="bubble grouping" cx="142.7" cy="668.9" r="14.9"/>
	<circle class="bubble grouping" cx="771.1" cy="220.8" r="13.3"/>
	<circle class="bubble grouping" cx="81.8" cy="596" r="12.9"/>
	<circle class="bubble grouping" cx="208.5" cy="745.4" r="11.6"/>
	<circle class="bubble grouping" cx="31.9" cy="440.7" r="14"/>
	<circle class="bubble grouping" cx="58.4" cy="440.7" r="8.6"/>
	<circle class="bubble grouping" cx="249.3" cy="125.7" r="9.7"/>
	<circle class="bubble grouping" cx="681.2" cy="154.4" r="8.1"/>
	<circle class="bubble grouping" cx="808.3" cy="516.3" r="7.7"/>
	<circle class="bubble grouping" cx="796" cy="292" r="7.7"/>
	<circle class="bubble grouping" cx="834.1" cy="522.2" r="7.1"/>
	<circle class="bubble grouping" cx="169.9" cy="177" r="6.9"/>
	<circle class="bubble grouping" cx="329" cy="87.4" r="6.6"/>
	<circle class="bubble grouping" cx="801.7" cy="593.3" r="5.1"/>
	<circle class="bubble grouping" cx="658.2" cy="137.2" r="5.1"/>
	<circle class="north-american" cx="218.1" cy="446.5" r="38.6"/>
	<circle class="north-american" cx="298.7" cy="446.5" r="38.1"/>
	<circle class="north-american" cx="258.8" cy="490.3" r="17.3"/>
	<circle class="north-american" cx="387" cy="446.5" r="38.6"/>
	<circle class="north-american" cx="456.8" cy="446.5" r="27.3"/>
	<circle class="north-american" cx="430.8" cy="487.8" r="17.7"/>
	<circle class="north-american" cx="430.1" cy="410.1" r="13.9"/>
	<circle class="north-american" cx="409.8" cy="407.4" r="2.7"/>
	<circle class="north-american" cx="533.5" cy="446.5" r="29.9"/>
	<circle class="north-american" cx="594.6" cy="446.5" r="27.3"/>
	<circle class="north-american" cx="671" cy="446.5" r="37.4"/>
	<circle class="north-american" cx="622.4" cy="510.5" r="13.4"/>
	<circle class="north-american" cx="649.2" cy="510.5" r="9.6"/>
	<circle class="north-american" cx="623.7" cy="384.1" r="13.7"/>
	<circle class="north-american" cx="649.2" cy="384.1" r="8"/>
	<circle class="eurasia" cx="465.9" cy="625.7" r="38.6"/>
	<circle class="eurasia" cx="541.4" cy="625.7" r="33"/>
	<circle class="eurasia" cx="508.4" cy="677.4" r="24.4"/>
	<circle class="eurasia" cx="590.4" cy="628.7" r="4.2"/>
	<circle class="eurasia" cx="461.4" cy="256.7" r="37.3"/>
	<circle class="eurasia" cx="532.7" cy="256.7" r="30.2"/>
	<circle class="eurasia" cx="503.1" cy="305.3" r="22.9"/>
	<circle class="eurasia" cx="586.9" cy="259.6" r="12.2"/>
	<circle class="south-american" cx="266.7" cy="716" r="34.6"/>
	<circle class="south-american" cx="332.4" cy="716" r="27.3"/>
	<circle class="south-american" cx="304.1" cy="741.1" r="6.7"/>
	<circle class="south-american" cx="399.5" cy="716" r="28.1"/>
	<circle class="eurasia" cx="285.5" cy="192.1" r="33.8"/>
	<circle class="eurasia" cx="349.1" cy="192.1" r="25.9"/>
	<circle class="north-american" cx="322.5" cy="219.9" r="8.6"/>
	<circle class="eurasia" cx="401.9" cy="192.1" r="15.2"/>
	<circle class="north-american" cx="648.3" cy="631.2" r="34.2"/>
	<circle class="north-american" cx="698.2" cy="631.2" r="11.8"/>
	<circle class="north-american" cx="690.2" cy="656.6" r="10.9"/>
	<circle class="north-american" cx="689" cy="609.3" r="8.1"/>
	<circle class="north-american" cx="744.6" cy="630.9" r="15.2"/>
	<circle class="north-american" cx="776" cy="630.9" r="12.4"/>
	<circle class="north-american" cx="762.7" cy="654.2" r="10.5"/>
	<circle class="north-american" cx="762.6" cy="610.2" r="8.4"/>
	<circle class="north-american" cx="745.3" cy="606.4" r="5.5"/>
	<circle class="north-american" cx="744.9" cy="653.4" r="3.5"/>
	<circle class="eurasia" cx="655.1" cy="284.9" r="38.6"/>
	<circle class="papuenmia" cx="712" cy="284.9" r="6.7"/>
	<circle class="austrilia" cx="153.4" cy="262.6" r="34.1"/>
	<circle class="austrilia" cx="217.8" cy="262.6" r="18.6"/>
	<circle class="austrilia" cx="244.2" cy="262.6" r="3.9"/>
	<circle class="north-american" cx="209.2" cy="617.4" r="38.6"/>
	<circle class="eurasia" cx="449" cy="109.7" r="36.7"/>
	<circle class="eurasia" cx="505.5" cy="109.7" r="8.2"/>
	<circle class="papuenmia" cx="459.1" cy="774.3" r="24.4"/>
	<circle class="papuenmia" cx="516.3" cy="774.3" r="21.2"/>
	<circle class="papuenmia" cx="490.7" cy="817.3" r="17.3"/>
	<circle class="north-american" cx="738.7" cy="366.2" r="29.9"/>
	<circle class="north-american" cx="801.4" cy="366.2" r="21.2"/>
	<circle class="south-american" cx="752.5" cy="501" r="34.6"/>
	<circle class="papuenmia" cx="632.3" cy="185.9" r="34.6"/>
	<circle class="africa" cx="601.5" cy="731.3" r="33.7"/>
	<circle class="papuenmia" cx="152.3" cy="545.8" r="33.4"/>
	<circle class="eurasia" cx="89.3" cy="382.2" r="27.3"/>
	<circle class="eurasia" cx="139.2" cy="382.2" r="10.9"/>
	<circle class="eurasia" cx="161.7" cy="382.2" r="7.7"/>
	<circle class="eurasia" cx="152.8" cy="394.3" r="3.5"/>
	<circle class="south-american" cx="97.7" cy="483.6" r="29.9"/>
	<circle class="eurasia" cx="823.9" cy="458.8" r="27.3"/>
	<circle class="eurasia" cx="866.7" cy="458.8" r="11.6"/>
	<circle class="africa" cx="581.6" cy="809.2" r="27.3"/>
	<circle class="africa" cx="567.1" cy="137.4" r="27.3"/>
	<circle class="eurasia" cx="548.8" cy="67.4" r="25.6"/>
	<circle class="africa" cx="189.5" cy="697.5" r="24.4"/>
	<circle class="africa" cx="212.7" cy="158.8" r="24.1"/>
	<circle class="south-american" cx="128.3" cy="617.6" r="22.9"/>
	<circle class="south-american" cx="757.9" cy="269.1" r="21.2"/>
	<circle class="eurasia" cx="702.5" cy="196" r="16.8"/>
	<circle class="eurasia" cx="735.4" cy="196" r="12.2"/>
	<circle class="austrilia" cx="360.5" cy="69.5" r="12.8"/>
	<circle class="austrilia" cx="389.5" cy="69.5" r="12.2"/>
	<circle class="papuenmia" cx="798.3" cy="555.6" r="17.3"/>
	<circle class="north-american" cx="403.8" cy="827.4" r="15"/>
	<circle class="north-american" cx="424.3" cy="827.4" r="1.7"/>
	<circle class="north-american" cx="659.8" cy="760.8" r="11.1"/>
	<circle class="north-american" cx="690.2" cy="760.8" r="7.7"/>
	<circle class="eurasia" cx="95" cy="299.4" r="12.2"/>
	<circle class="africa" cx="618.1" cy="114.3" r="8.6"/>
	<circle class="africa" cx="637.9" cy="114.3" r="7.2"/>
	<circle class="africa" cx="629" cy="124.9" r="2.7"/>
	<circle class="north-american" cx="71.6" cy="549.2" r="8.6"/>
	<circle class="north-american" cx="91.8" cy="549.2" r="7.7"/>
	<circle class="africa" cx="142.7" cy="668.9" r="11"/>
	<circle class="austrilia" cx="771.1" cy="220.8" r="9.5"/>
	<circle class="eurasia" cx="81.8" cy="596" r="9.1"/>
	<circle class="eurasia" cx="208.5" cy="745.4" r="7.7"/>
	<circle class="austrilia" cx="26.5" cy="440.7" r="4.7"/>
	<circle class="austrilia" cx="38.5" cy="440.7" r="3.5"/>
	<circle class="austrilia" cx="58.4" cy="440.7" r="4.7"/>
	<circle class="austrilia" cx="249.3" cy="125.7" r="5.9"/>
	<circle class="africa" cx="681.2" cy="154.4" r="4.2"/>
	<circle class="north-american" cx="808.3" cy="516.3" r="3.9"/>
	<circle class="eurasia" cx="796" cy="292" r="3.9"/>
	<circle class="north-american" cx="834.1" cy="522.2" r="3.2"/>
	<circle class="austrilia" cx="169.9" cy="177" r="3"/>
	<circle class="austrilia" cx="329" cy="87.4" r="2.7"/>
	<circle class="africa" cx="801.7" cy="593.3" r="1.2"/>
	<circle class="africa" cx="658.2" cy="137.2" r="1.2"/>
</g>
<g id="labels">
	<text transform="matrix(1 0 0 1 283.197 446.4699)" class="st7 st8">Nakh-Daghestanian</text>
	<text transform="matrix(1 0 0 1 591.9081 446.4699)" class="st7 st8">Uralic</text>
	<text transform="matrix(1 0 0 1 498.9398 628.7194)" class="st7 st8">Algic</text>
	<text transform="matrix(1 0 0 1 489.8354 259.625)" class="st7 st8">Penutian</text>
	<text transform="matrix(1 0 0 1 297.7755 715.9546)" class="st7 st8">Austronesian</text>
	<text transform="matrix(1 0 0 1 301.9906 192.0739)" class="st7 st8">Eskimo-Aleut</text>
	<text transform="matrix(1 0 0 1 687.7675 632.5703)" class="st7 st8">Altaic</text>
	<text transform="matrix(1 0 0 1 655.053 284.8601)" class="st7 st8">other</text>
	<text transform="matrix(1 0 0 1 145.4563 262.6489)" class="st7 st8">Pama-Nyungan</text>
	<text transform="matrix(1 0 0 1 195.4578 617.4183)" class="st7 st8">Nivkh</text>
	<text transform="matrix(1 0 0 1 447.1093 109.6971)" class="st7 st8">Hokan</text>
	<text transform="matrix(1 0 0 1 457.8934 782.4039)" class="st7 st8">Afro-Asiatic</text>
	<text transform="matrix(1 0 0 1 729.2775 366.2417)" class="st7 st8">Indo-European</text>
	<text transform="matrix(1 0 0 1 738.1442 501.0222)" class="st7 st8">Anêm</text>
	<text transform="matrix(1 0 0 1 616.3854 185.8728)" class="st7 st8">Hadza</text>
	<text transform="matrix(1 0 0 1 577.0139 731.2567)" class="st7 st8">Macro-Ge</text>
	<text transform="matrix(1 0 0 1 141.9004 545.8152)" class="st7 st8">Laal</text>
	<text transform="matrix(1 0 0 1 93.7048 382.1553)" class="st7 st8">Na-Dene</text>
	<text transform="matrix(1 0 0 1 87.1045 483.6207)" class="st7 st8">Yale</text>
	<text transform="matrix(1 0 0 1 811.6324 458.8495)" class="st7 st8">Wakashan</text>
	<text transform="matrix(1 0 0 1 562.3212 809.1538)" class="st7 st8">Cariban</text>
	<text transform="matrix(1 0 0 1 540.1576 137.396)" class="st7 st8">Harakmbet</text>
	<text transform="matrix(1 0 0 1 527.736 67.3883)" class="st7 st8">Salishan</text>
	<text transform="matrix(1 0 0 1 172.8861 697.4916)" class="st7 st8">Tupian</text>
	<text transform="matrix(1 0 0 1 200.1613 158.7849)" class="st7 st8">Mura</text>
	<text transform="matrix(1 0 0 1 111.817 617.6053)" class="st7 st8">Border</text>
	<text transform="matrix(1 0 0 1 711.1538 269.0889)" class="st7 st8">Lower Sepik-Ramu</text>
	<text transform="matrix(1 0 0 1 688.1965 195.9531)" class="st7 st8">Muskogean</text>
	<text transform="matrix(1 0 0 1 352.6782 69.49)" class="st7 st8">Bunuban</text>
	<text transform="matrix(1 0 0 1 767.128 555.5746)" class="st7 st8">Niger-Congo</text>
	<text transform="matrix(1 0 0 1 383.7812 827.4114)" class="st7 st8">Yeniseian</text>
	<text transform="matrix(1 0 0 1 617.6642 760.8149)" class="st7 st8">Chukotko-Kamchatkan</text>
	<text transform="matrix(1 0 0 1 76.356 299.363)" class="st7 st8">Kutenai</text>
	<text transform="matrix(1 0 0 1 603.7516 114.2902)" class="st7 st8">Zaparoan</text>
	<text transform="matrix(1 0 0 1 59.8405 549.2125)" class="st7 st8">Yukaghir</text>
	<text transform="matrix(1 0 0 1 121.9496 668.8619)" class="st7 st8">Tacanan</text>
	<text transform="matrix(1 0 0 1 748.142 220.8297)" class="st7 st8">Mangrida</text>
	<text transform="matrix(1 0 0 1 67.4286 595.9688)" class="st7 st8">Haida</text>
	<text transform="matrix(1 0 0 1 185.5868 745.4094)" class="st7 st8">Iroquoian</text>
	<text transform="matrix(1 0 0 1 9.5102 440.6898)" class="st7 st8">Western Daly</text>
	<text transform="matrix(1 0 0 1 213.2212 125.6835)" class="st7 st8">Darwin Region</text>
	<text transform="matrix(1 0 0 1 655.5191 154.3767)" class="st7 st8">Alacalufan</text>
	<text transform="matrix(1 0 0 1 797.2664 516.2834)" class="st7 st8">Ainu</text>
	<text transform="matrix(1 0 0 1 773.6368 292.0237)" class="st7 st8">Caddoan</text>
	<text transform="matrix(1 0 0 1 812.3733 522.2372)" class="st7 st8">Kusunda</text>
	<text transform="matrix(1 0 0 1 142.7198 177.0065)" class="st7 st8">Nyulnyulan</text>
	<text transform="matrix(1 0 0 1 302.3907 87.4102)" class="st7 st8">Anson Bay</text>
	<text transform="matrix(1 0 0 1 780.8923 593.3176)" class="st7 st8">Taushiro</text>
	<text transform="matrix(1 0 0 1 637.6889 137.1533)" class="st7 st8">Yámana</text>
	<text transform="matrix(1 0 0 1 242.2003 446.4699)" class="st7 st8">Lezgic</text>
	<text transform="matrix(1 0 0 1 372.3436 446.4699)" class="st7 st8">Avar-Andic-Tsezic</text>
	<text transform="matrix(1 0 0 1 547.1382 446.4699)" class="st7 st8">Saami</text>
	<text transform="matrix(1 0 0 1 658.1335 446.4699)" class="st7 st8">Ugric</text>
	<text transform="matrix(1 0 0 1 619.2462 510.5238)" class="st7 st8">Finnic</text>
	<text transform="matrix(1 0 0 1 606.4421 384.1197)" class="st7 st8">Samoyedic</text>
	<text transform="matrix(1 0 0 1 473.2865 628.7194)" class="st7 st8">Algonquian</text>
	<text transform="matrix(1 0 0 1 576.3204 628.7194)" class="st7 st8">Yurok</text>
	<text transform="matrix(1 0 0 1 465.0887 259.625)" class="st7 st8">Tsimshianic</text>
	<text transform="matrix(1 0 0 1 562.089 259.625)" class="st7 st8">Sahaptian</text>
	<text transform="matrix(1 0 0 1 230.2075 715.9546)" class="st7 st8">Central Malayo-Polynesian</text>
	<text transform="matrix(1 0 0 1 379.3352 715.9546)" class="st7 st8">Oceanic</text>
	<text transform="matrix(1 0 0 1 295.3295 192.0739)" class="st7 st8">Eskimo</text>
	<text transform="matrix(1 0 0 1 389.3198 192.0739)" class="st7 st8">Aleut</text>
	<text transform="matrix(1 0 0 1 647.204 632.5703)" class="st7 st8">Turkic</text>
	<text transform="matrix(1 0 0 1 732.9225 632.5703)" class="st7 st8">Tungusic</text>
	<text transform="matrix(1 0 0 1 615.3224 284.8601)" class="st7 st8">Sign Languages</text>
	<text transform="matrix(1 0 0 1 662.8191 284.8601)" class="st7 st8">Creoles and Pidgins</text>
	<text transform="matrix(1 0 0 1 92.2997 262.6489)" class="st7 st8">Northern Pama-Nyungan</text>
	<text transform="matrix(1 0 0 1 163.4901 262.6489)" class="st7 st8">Western Pama-Nyungan</text>
	<text transform="matrix(1 0 0 1 195.4578 617.4183)" class="st7 st8">Nivkh</text>
	<text transform="matrix(1 0 0 1 439.2133 109.6971)" class="st7 st8">Seri</text>
	<text transform="matrix(1 0 0 1 484.9932 109.6971)" class="st7 st8">Pomoan</text>
	<text transform="matrix(1 0 0 1 441.6663 774.3452)" class="st7 st8">Dahalo</text>
	<text transform="matrix(1 0 0 1 477.5032 774.3452)" class="st7 st8">Egyptian-Coptic</text>
	<text transform="matrix(1 0 0 1 459.5926 817.3477)" class="st7 st8">West Chadic</text>
	<text transform="matrix(1 0 0 1 724.9345 366.2417)" class="st7 st8">Celtic</text>
	<text transform="matrix(1 0 0 1 789.7938 366.2417)" class="st7 st8">Indic</text>
	<text transform="matrix(1 0 0 1 738.1442 501.0222)" class="st7 st8">Anêm</text>
	<text transform="matrix(1 0 0 1 616.3854 185.8728)" class="st7 st8">Hadza</text>
	<text transform="matrix(1 0 0 1 569.0513 731.2567)" class="st7 st8">Ge-Kaingang</text>
	<text transform="matrix(1 0 0 1 141.9004 545.8152)" class="st7 st8">Laal</text>
	<text transform="matrix(1 0 0 1 74.6323 382.1553)" class="st7 st8">Tlingit</text>
	<text transform="matrix(1 0 0 1 119.8033 382.1553)" class="st7 st8">Athapaskan</text>
	<text transform="matrix(1 0 0 1 87.1045 483.6207)" class="st7 st8">Yale</text>
	<text transform="matrix(1 0 0 1 788.7059 458.8495)" class="st7 st8">Northern Wakashan</text>
	<text transform="matrix(1 0 0 1 562.3212 809.1538)" class="st7 st8">Cariban</text>
	<text transform="matrix(1 0 0 1 540.1576 137.396)" class="st7 st8">Harakmbet</text>
	<text transform="matrix(1 0 0 1 515.2079 67.3883)" class="st7 st8">Interior Salish</text>
	<text transform="matrix(1 0 0 1 157.2992 697.4916)" class="st7 st8">Tupi-Guaraní</text>
	<text transform="matrix(1 0 0 1 200.1613 158.7849)" class="st7 st8">Mura</text>
	<text transform="matrix(1 0 0 1 111.817 617.6053)" class="st7 st8">Border</text>
	<text transform="matrix(1 0 0 1 727.6565 269.0889)" class="st7 st8">Lower Sepik</text>
	<text transform="matrix(1 0 0 1 688.1965 195.9531)" class="st7 st8">Muskogean</text>
	<text transform="matrix(1 0 0 1 352.6782 69.49)" class="st7 st8">Bunuban</text>
	<text transform="matrix(1 0 0 1 779.6561 555.5746)" class="st7 st8">Bantoid</text>
	<text transform="matrix(1 0 0 1 383.7812 827.4114)" class="st7 st8">Yeniseian</text>
	<text transform="matrix(1 0 0 1 580.2688 760.8149)" class="st7 st8">Southern Chukotko-Kamchatkan</text>
	<text transform="matrix(1 0 0 1 611.6191 760.8149)" class="st7 st8">Northern Chukotko-Kamchatkan</text>
	<text transform="matrix(1 0 0 1 76.356 299.363)" class="st7 st8">Kutenai</text>
	<text transform="matrix(1 0 0 1 603.7516 114.2902)" class="st7 st8">Zaparoan</text>
	<text transform="matrix(1 0 0 1 59.8405 549.2125)" class="st7 st8">Yukaghir</text>
	<text transform="matrix(1 0 0 1 121.9496 668.8619)" class="st7 st8">Tacanan</text>
	<text transform="matrix(1 0 0 1 749.6728 220.8297)" class="st7 st8">Burarran</text>
	<text transform="matrix(1 0 0 1 67.4286 595.9688)" class="st7 st8">Haida</text>
	<text transform="matrix(1 0 0 1 162.6603 745.4094)" class="st7 st8">Northern Iroquoian</text>
	<text transform="matrix(1 0 0 1 12.9118 440.6898)" class="st7 st8">Bringen</text>
	<text transform="matrix(1 0 0 1 35.6413 440.6898)" class="st7 st8">Wagaydy</text>
	<text transform="matrix(1 0 0 1 230.9458 125.6835)" class="st7 st8">Laragia</text>
	<text transform="matrix(1 0 0 1 655.5191 154.3767)" class="st7 st8">Alacalufan</text>
	<text transform="matrix(1 0 0 1 797.2664 516.2834)" class="st7 st8">Ainu</text>
	<text transform="matrix(1 0 0 1 773.6368 292.0237)" class="st7 st8">Caddoan</text>
	<text transform="matrix(1 0 0 1 812.3733 522.2372)" class="st7 st8">Kusunda</text>
	<text transform="matrix(1 0 0 1 142.7198 177.0065)" class="st7 st8">Nyulnyulan</text>
	<text transform="matrix(1 0 0 1 302.3907 87.4102)" class="st7 st8">Anson Bay</text>
	<text transform="matrix(1 0 0 1 780.8923 593.3176)" class="st7 st8">Taushiro</text>
	<text transform="matrix(1 0 0 1 637.6889 137.1533)" class="st7 st8">Yámana</text>
	<text transform="matrix(1 0 0 1 196.7015 446.4699)" class="st7 st8">Khinalug</text>
	<text transform="matrix(1 0 0 1 286.1427 446.4699)" class="st7 st8">Archi</text>
	<text transform="matrix(1 0 0 1 240.1682 490.259)" class="st7 st8">Budukh</text>
	<text transform="matrix(1 0 0 1 369.8759 446.4699)" class="st7 st8">Hunzib</text>
	<text transform="matrix(1 0 0 1 433.597 446.4699)" class="st7 st8">Chamalal</text>
	<text transform="matrix(1 0 0 1 409.6592 487.841)" class="st7 st8">Akhvakh</text>
	<text transform="matrix(1 0 0 1 383.3549 410.0782)" class="st7 st8">Godoberi language</text>
	<text transform="matrix(1 0 0 1 395.4095 407.3789)" class="st7 st8">Hinuq</text>
	<text transform="matrix(1 0 0 1 497.088 446.4699)" class="st7 st8">Southern Sami</text>
	<text transform="matrix(1 0 0 1 567.0832 446.4699)" class="st7 st8">Kildin Sami</text>
	<text transform="matrix(1 0 0 1 656.2966 446.4699)" class="st7 st8">Mansi</text>
	<text transform="matrix(1 0 0 1 605.541 510.5238)" class="st7 st8">Ingrian</text>
	<text transform="matrix(1 0 0 1 637.3165 510.5238)" class="st7 st8">Votic</text>
	<text transform="matrix(1 0 0 1 598.6235 384.1197)" class="st7 st8">Nganasan</text>
	<text transform="matrix(1 0 0 1 611.0223 384.1197)" class="st7 st8">Enets language</text>
	<text transform="matrix(1 0 0 1 445.076 625.7032)" class="st7 st8">Arapaho</text>
	<text transform="matrix(1 0 0 1 527.0321 625.7032)" class="st7 st8">Michif</text>
	<text transform="matrix(1 0 0 1 474.4775 677.4005)" class="st7 st8">Massachusett</text>
	<text transform="matrix(1 0 0 1 576.3204 628.7194)" class="st7 st8">Yurok</text>
	<text transform="matrix(1 0 0 1 442.7643 256.6964)" class="st7 st8">Gitxsan</text>
	<text transform="matrix(1 0 0 1 490.2183 256.6964)" class="st7 st8">Nisga’a language</text>
	<text transform="matrix(1 0 0 1 438.6608 305.2724)" class="st7 st8">Coast Tsimshian language</text>
	<text transform="matrix(1 0 0 1 561.184 259.625)" class="st7 st8">Nez Perce</text>
	<text transform="matrix(1 0 0 1 225.0838 715.9546)" class="st7 st8">Nuaulu language</text>
	<text transform="matrix(1 0 0 1 321.4214 715.9546)" class="st7 st8">Kola</text>
	<text transform="matrix(1 0 0 1 280.9847 741.139)" class="st7 st8">Yamdena</text>
	<text transform="matrix(1 0 0 1 382.3887 715.9546)" class="st7 st8">Kokota</text>
	<text transform="matrix(1 0 0 1 239.6344 192.0739)" class="st7 st8">Inuvialuk language</text>
	<text transform="matrix(1 0 0 1 334.1118 192.0739)" class="st7 st8">Alutiiq</text>
	<text transform="matrix(1 0 0 1 288.7045 219.8684)" class="st7 st8">Naukan Yupik</text>
	<text transform="matrix(1 0 0 1 389.3198 192.0739)" class="st7 st8">Aleut</text>
	<text transform="matrix(1 0 0 1 623.8226 631.1876)" class="st7 st8">Krymchak</text>
	<text transform="matrix(1 0 0 1 663.6061 631.1876)" class="st7 st8">Tofa language</text>
	<text transform="matrix(1 0 0 1 672.8106 656.5656)" class="st7 st8">Karaim</text>
	<text transform="matrix(1 0 0 1 670.3182 609.2766)" class="st7 st8">Chulym</text>
	<text transform="matrix(1 0 0 1 733.5511 630.8657)" class="st7 st8">Ulch</text>
	<text transform="matrix(1 0 0 1 759.7863 630.8657)" class="st7 st8">Udege</text>
	<text transform="matrix(1 0 0 1 744.0973 654.1503)" class="st7 st8">Negidal</text>
	<text transform="matrix(1 0 0 1 750.6425 610.1923)" class="st7 st8">Orok</text>
	<text transform="matrix(1 0 0 1 725.6924 606.3718)" class="st7 st8">Manchu</text>
	<text transform="matrix(1 0 0 1 729.9445 653.3586)" class="st7 st8">Oroch</text>
	<text transform="matrix(1 0 0 1 585.051 284.8601)" class="st7 st8">Plains Indian Sign Language</text>
	<text transform="matrix(1 0 0 1 674.7429 284.8601)" class="st7 st8">Nigerian Pidgin</text>
	<text transform="matrix(1 0 0 1 115.5377 262.6489)" class="st7 st8">Guugu Yimithirr</text>
	<text transform="matrix(1 0 0 1 196.711 262.6489)" class="st7 st8">Noongar</text>
	<text transform="matrix(1 0 0 1 210.2228 262.6489)" class="st7 st8">Ngadjunmaya</text>
	<text transform="matrix(1 0 0 1 195.4578 617.4183)" class="st7 st8">Nivkh</text>
	<text transform="matrix(1 0 0 1 439.2133 109.6971)" class="st7 st8">Seri</text>
	<text transform="matrix(1 0 0 1 484.0747 109.6971)" class="st7 st8">Kashaya</text>
	<text transform="matrix(1 0 0 1 441.6663 774.3452)" class="st7 st8">Dahalo</text>
	<text transform="matrix(1 0 0 1 500.7385 774.3452)" class="st7 st8">Coptic</text>
	<text transform="matrix(1 0 0 1 471.4117 817.3477)" class="st7 st8">Goemai</text>
	<text transform="matrix(1 0 0 1 719.7353 366.2417)" class="st7 st8">Cornish</text>
	<text transform="matrix(1 0 0 1 761.6492 366.2417)" class="st7 st8">Vedda language</text>
	<text transform="matrix(1 0 0 1 713.9823 501.0222)" class="st7 st8">Anêm language</text>
	<text transform="matrix(1 0 0 1 616.3854 185.8728)" class="st7 st8">Hadza</text>
	<text transform="matrix(1 0 0 1 581.5874 731.2567)" class="st7 st8">Xokleng</text>
	<text transform="matrix(1 0 0 1 141.9004 545.8152)" class="st7 st8">Laal</text>
	<text transform="matrix(1 0 0 1 74.6323 382.1553)" class="st7 st8">Tlingit</text>
	<text transform="matrix(1 0 0 1 124.8134 382.1553)" class="st7 st8">Ahtna</text>
	<text transform="matrix(1 0 0 1 136.0354 382.1553)" class="st7 st8">Deg Xinag</text>
	<text transform="matrix(1 0 0 1 139.6714 394.3058)" class="st7 st8">Hupa</text>
	<text transform="matrix(1 0 0 1 62.9426 483.6207)" class="st7 st8">Yalë language</text>
	<text transform="matrix(1 0 0 1 798.073 458.8495)" class="st7 st8">Kwak&apos;wala</text>
	<text transform="matrix(1 0 0 1 793.9102 458.8495)" class="st7 st8">Heiltsuk-Oowekyala language</text>
	<text transform="matrix(1 0 0 1 529.9093 809.1538)" class="st7 st8">Hixkaryana language</text>
	<text transform="matrix(1 0 0 1 538.9357 137.396)" class="st7 st8">Amarakaeri</text>
	<text transform="matrix(1 0 0 1 522.8483 67.3883)" class="st7 st8">Thompson</text>
	<text transform="matrix(1 0 0 1 172.3785 697.4916)" class="st7 st8">Sirionó</text>
	<text transform="matrix(1 0 0 1 196.7937 158.7849)" class="st7 st8">Pirahã</text>
	<text transform="matrix(1 0 0 1 116.8122 617.6053)" class="st7 st8">Awyi</text>
	<text transform="matrix(1 0 0 1 742.8459 269.0889)" class="st7 st8">Yimas</text>
	<text transform="matrix(1 0 0 1 681.0811 195.9531)" class="st7 st8">Mikasuki</text>
	<text transform="matrix(1 0 0 1 713.7039 195.9531)" class="st7 st8">Alabama</text>
	<text transform="matrix(1 0 0 1 317.4183 69.49)" class="st7 st8">Bunuba language</text>
	<text transform="matrix(1 0 0 1 340.525 69.49)" class="st7 st8">Guniyandi language</text>
	<text transform="matrix(1 0 0 1 774.1534 555.5746)" class="st7 st8">Mbalanhu</text>
	<text transform="matrix(1 0 0 1 395.5103 827.4114)" class="st7 st8">Ket</text>
	<text transform="matrix(1 0 0 1 387.6322 827.4114)" class="st7 st8">Yugh language</text>
	<text transform="matrix(1 0 0 1 641.7222 760.8149)" class="st7 st8">Itelmen</text>
	<text transform="matrix(1 0 0 1 675.8171 760.8149)" class="st7 st8">Alutor</text>
	<text transform="matrix(1 0 0 1 76.356 299.363)" class="st7 st8">Kutenai</text>
	<text transform="matrix(1 0 0 1 599.1711 114.2902)" class="st7 st8">Arabela</text>
	<text transform="matrix(1 0 0 1 624.4196 114.2902)" class="st7 st8">Iquito</text>
	<text transform="matrix(1 0 0 1 611.6142 124.9426)" class="st7 st8">Záparo</text>
	<text transform="matrix(1 0 0 1 26.4231 549.2125)" class="st7 st8">Southern Yukaghir</text>
	<text transform="matrix(1 0 0 1 51.7678 549.2125)" class="st7 st8">Tundra Yukaghir</text>
	<text transform="matrix(1 0 0 1 125.0085 668.8619)" class="st7 st8">Araona</text>
	<text transform="matrix(1 0 0 1 746.6086 220.8297)" class="st7 st8">Guragone</text>
	<text transform="matrix(1 0 0 1 67.4286 595.9688)" class="st7 st8">Haida</text>
	<text transform="matrix(1 0 0 1 182.8314 745.4094)" class="st7 st8">Onondaga</text>
	<text transform="matrix(1 0 0 1 -23.0528 440.6898)" class="st7 st8">Marrithiyel language</text>
	<text transform="matrix(1 0 0 1 15.0068 440.6898)" class="st7 st8">Maringarr</text>
	<text transform="matrix(1 0 0 1 15.5587 440.6898)" class="st7 st8">Marranj language</text>
	<text transform="matrix(1 0 0 1 204.0339 125.6835)" class="st7 st8">Laragiya language</text>
	<text transform="matrix(1 0 0 1 632.5845 154.3767)" class="st7 st8">Kawésqar language</text>
	<text transform="matrix(1 0 0 1 773.1046 516.2834)" class="st7 st8">Ainu language</text>
	<text transform="matrix(1 0 0 1 778.5406 292.0237)" class="st7 st8">Arikara</text>
	<text transform="matrix(1 0 0 1 812.3733 522.2372)" class="st7 st8">Kusunda</text>
	<text transform="matrix(1 0 0 1 151.6895 177.0065)" class="st7 st8">Yawuru</text>
	<text transform="matrix(1 0 0 1 282.1068 87.4102)" class="st7 st8">Wagaydy language</text>
	<text transform="matrix(1 0 0 1 780.8923 593.3176)" class="st7 st8">Taushiro</text>
	<text transform="matrix(1 0 0 1 639.6198 137.1533)" class="st7 st8">Yaghan</text>
</g>
</svg>
